<?xml version="1.0" encoding="UTF-8"?>
<svg version="1.1" xmlns="http://www.w3.org/2000/svg" width="1024" height="1024">
<path d="M0 0 C2.74730806 1.36826715 4.96840844 2.06807631 7.98828125 2.48828125 C7.98828125 3.47828125 7.98828125 4.46828125 7.98828125 5.48828125 C9.948227 7.47274457 9.948227 7.47274457 12.48828125 9.48828125 C27.19163148 22.34332898 34.97088261 40.21626755 36.86328125 59.48828125 C37.82271708 80.78775676 30.24466708 100.75004887 15.98828125 116.48828125 C3.41472861 129.63136763 -14.55748885 138.97566375 -33.01171875 139.48828125 C-33.8109375 139.53855469 -34.61015625 139.58882812 -35.43359375 139.640625 C-54.97261624 140.36322199 -74.32027696 133.3170581 -89.01171875 120.48828125 C-89.01171875 119.82828125 -89.01171875 119.16828125 -89.01171875 118.48828125 C-89.58277344 118.26527344 -90.15382813 118.04226563 -90.7421875 117.8125 C-101.27525489 111.66669992 -107.78217121 94.59300899 -110.88671875 83.48828125 C-115.48487733 62.09684787 -112.48332082 40.98100461 -100.9453125 22.296875 C-90.22963099 6.732077 -73.29578009 -5.04536244 -54.6875 -9.07421875 C-35.02885234 -11.41403654 -17.43211943 -9.5661572 0 0 Z " fill="#33203A" transform="translate(550.01171875,389.51171875)"/>
<path d="M0 0 C0.63164062 0.49628906 1.26328125 0.99257813 1.9140625 1.50390625 C1.28461642 5.06804251 -0.2053779 7.31388333 -2.2734375 10.25390625 C-5.25972271 14.85008184 -7.47095393 19.40042089 -9.3984375 24.50390625 C-9.64037842 25.13135742 -9.88231934 25.75880859 -10.1315918 26.40527344 C-18.12097755 48.45000789 -15.60614158 73.91459642 -5.90234375 94.84765625 C-4.67441325 97.40863192 -3.3154725 99.84501455 -1.86328125 102.28515625 C-0.0859375 105.50390625 -0.0859375 105.50390625 -0.0859375 108.50390625 C-13.58668127 121.32312209 -33.94208653 127.48441769 -52.0859375 127.50390625 C-73.10151661 126.29358494 -90.70231398 117.57644062 -105.0859375 102.50390625 C-110.02114294 96.6037165 -118.0859375 86.42323085 -118.0859375 78.50390625 C-118.7459375 78.17390625 -119.4059375 77.84390625 -120.0859375 77.50390625 C-125.88250298 59.32702191 -122.7535216 37.77686346 -114.28027344 21.18701172 C-111.41301507 15.82563134 -108.06722814 11.10134902 -104.0859375 6.50390625 C-103.47234375 5.69179688 -102.85875 4.8796875 -102.2265625 4.04296875 C-76.00448695 -27.05985809 -29.41222974 -22.33464708 0 0 Z " fill="#33203A" transform="translate(440.0859375,397.49609375)"/>
<path d="M0 0 C7.48949341 6.15586644 14.40207276 13.22816346 19.22705078 21.671875 C19.88705078 22.331875 20.54705078 22.991875 21.22705078 23.671875 C22.29308942 26.20371677 23.28251422 28.72044111 24.22705078 31.296875 C24.48744141 31.98394531 24.74783203 32.67101562 25.01611328 33.37890625 C32.05711921 52.33272525 31.47112818 71.14373167 23.22705078 89.671875 C13.54303869 108.53368946 -1.43962135 122.1050804 -21.77294922 128.671875 C-41.07108958 134.09739846 -60.91961981 130.87336307 -78.45263672 121.6875 C-83.66853918 118.52114039 -88.23661794 114.75457315 -92.77294922 110.671875 C-91.30795042 106.76040037 -89.45290369 103.21369809 -87.46044922 99.546875 C-77.46867657 79.89909944 -75.39020029 57.18720268 -81.64013672 36.01171875 C-82.01396484 34.90957031 -82.38779297 33.80742187 -82.77294922 32.671875 C-83.08490234 31.74503906 -83.39685547 30.81820312 -83.71826172 29.86328125 C-86.76098396 21.66838647 -91.26099375 14.12932069 -95.77294922 6.671875 C-69.32713329 -16.72489392 -29.36907667 -22.00052012 0 0 Z " fill="#33203A" transform="translate(676.77294921875,393.328125)"/>
<path d="M0 0 C6.87554495 6.04214557 11.95465505 14.40137896 15 23 C15 23.99 15 24.98 15 26 C15.66 26.33 16.32 26.66 17 27 C21.36981208 45.90887818 19.58367287 66.91291964 9.3671875 83.6796875 C7.66119714 86.19659704 5.87124206 88.60399658 4 91 C3.23429688 92.03060547 3.23429688 92.03060547 2.453125 93.08203125 C-7.40438776 105.45272177 -22.59237413 112.74562106 -38 115 C-56.09856279 116.64031471 -73.78044611 113.17653477 -88.19140625 101.48828125 C-101.4129562 90.18334358 -109.98455568 76.13140064 -112.67578125 58.85546875 C-112.92375468 56.91367229 -112.92375468 56.91367229 -114 55 C-113.93075116 34.53055656 -108.11340594 17.40720689 -96 1 C-93.13515941 1.63237284 -90.66757047 2.53134523 -88.03125 3.8125 C-87.29519531 4.16570313 -86.55914062 4.51890625 -85.80078125 4.8828125 C-84.26692708 5.62760417 -82.73307292 6.37239583 -81.19921875 7.1171875 C-80.46316406 7.47039063 -79.72710937 7.82359375 -78.96875 8.1875 C-78.30294922 8.51105469 -77.63714844 8.83460938 -76.95117188 9.16796875 C-74.97511233 10.01061276 -73.09232827 10.52587635 -71 11 C-69.783125 11.33 -68.56625 11.66 -67.3125 12 C-54.49518635 15.15720594 -39.97566597 14.98760201 -27 13 C-26.67 12.34 -26.34 11.68 -26 11 C-24.17589368 10.55257769 -22.35038611 10.11035862 -20.51953125 9.69140625 C-13.17697849 7.67647317 -6.09704371 4.57278278 0 0 Z " fill="#33203A" transform="translate(559,526)"/>
<path d="M0 0 C2.82069597 2.89218827 3.43170217 5.01109162 3.4375 9 C2.51773694 41.87153205 -13.63299103 75.72928475 -37.1484375 98.33203125 C-60.21546694 119.11182359 -85.28916843 127.98277594 -116.3125 127.14501953 C-123.68684999 126.74709403 -132.12737223 125.77341841 -138 121 C-140.63751737 115.19013534 -139.8275634 110.54956198 -138.5 104.5625 C-138.31203857 103.68360107 -138.12407715 102.80470215 -137.93041992 101.89916992 C-133.40593152 81.77676743 -124.17096048 63.80951382 -111 48 C-110.55849609 47.44103027 -110.11699219 46.88206055 -109.66210938 46.30615234 C-108.48586045 44.83411901 -107.24715296 43.41246351 -106 42 C-105.34 42 -104.68 42 -104 42 C-103.71576172 41.18789063 -103.71576172 41.18789063 -103.42578125 40.359375 C-101.32065999 36.87583188 -98.36795189 34.73904931 -95.1875 32.25 C-94.51315918 31.71922852 -93.83881836 31.18845703 -93.14404297 30.64160156 C-70.31260479 12.9452248 -29.89874225 -6.81901139 0 0 Z " fill="#6D9349" transform="translate(658,245)"/>
<path d="M0 0 C0.95938477 0.10231934 1.91876953 0.20463867 2.90722656 0.31005859 C21.36322138 2.51371508 38.68190642 7.21862766 55.25 15.625 C56.57670713 16.27107116 57.90352829 16.9169082 59.23046875 17.5625 C89.29852116 32.54913613 111.8738844 59.59451863 123.0625 91.0625 C124.77404292 96.54642323 126.10490564 102.04616366 127.1875 107.6875 C127.32841064 108.3899585 127.46932129 109.09241699 127.61450195 109.81616211 C128.39160908 114.32230036 128.34900832 117.52806874 126.25 121.625 C115.57016876 130.14254147 95.74582771 128.66585304 82.96044922 127.39794922 C63.14689807 124.8487585 42.79526783 115.4063357 28.25 101.625 C27.02023437 100.48998047 27.02023437 100.48998047 25.765625 99.33203125 C15.69323239 89.70066148 6.49682983 78.1450176 0.25 65.625 C0.25 64.965 0.25 64.305 0.25 63.625 C-0.41 63.295 -1.07 62.965 -1.75 62.625 C-9.63333762 46.25850559 -18.10424823 21.82707433 -14.75 3.625 C-10.63668924 -1.58575212 -5.99913209 -0.69972178 0 0 Z " fill="#6E9449" transform="translate(377.75,244.375)"/>
<path d="M0 0 C2.60744862 1.38962123 5.20661413 2.7911775 7.78173828 4.23999023 C26.13712159 14.52480182 47.93038292 18.08232935 68.54296875 12.671875 C78.88251328 10.01368729 78.88251328 10.01368729 87.66796875 4.421875 C90.29296875 3.796875 90.29296875 3.796875 92.66796875 3.421875 C101.68538954 22.30301174 106.94645056 41.39613954 99.86206055 61.9609375 C93.29288333 79.54466743 82.23931938 92.31330296 65.54296875 100.796875 C64.88619141 101.13090332 64.22941406 101.46493164 63.55273438 101.80908203 C49.49772489 108.62948249 33.10468528 108.93476945 18.28515625 104.3828125 C0.50271112 97.86678651 0.50271112 97.86678651 -5.33203125 91.421875 C-4.91759598 90.15031223 -4.50027827 88.8796891 -4.08203125 87.609375 C-3.67404297 86.36414063 -3.67404297 86.36414063 -3.2578125 85.09375 C-2.65638713 83.35799072 -2.00992135 81.63696351 -1.3125 79.9375 C6.16416792 61.45584897 4.79916928 40.67226619 -2.56640625 22.3515625 C-3.77160831 19.68077521 -5.03970356 17.05137456 -6.33203125 14.421875 C-7.11050412 12.69613418 -7.88188641 10.96716876 -8.64453125 9.234375 C-8.97066406 8.49832031 -9.29679688 7.76226563 -9.6328125 7.00390625 C-9.86355469 6.48183594 -10.09429688 5.95976563 -10.33203125 5.421875 C-9.12153929 4.35856444 -7.88772357 3.32176183 -6.64453125 2.296875 C-5.96003906 1.71679688 -5.27554688 1.13671875 -4.5703125 0.5390625 C-2.33203125 -0.578125 -2.33203125 -0.578125 0 0 Z " fill="#33203A" transform="translate(586.33203125,520.578125)"/>
<path d="M0 0 C0 0.66 0 1.32 0 2 C1.9600281 3.63676257 1.9600281 3.63676257 4 5 C3.0643656 9.25006963 1.11843277 12.85185425 -0.875 16.6875 C-10.93747519 36.59032068 -11.60312852 55.76539404 -6.23046875 77.34375 C-5.25367917 80.24621046 -4.38362271 82.13459633 -2.80078125 84.65625 C-1 88 -1 88 -0.87109375 90.6875 C-3.92326222 96.93969284 -13.89164509 100.32471 -20.2421875 102.58984375 C-38.69815007 108.69155027 -56.23170005 108.55385794 -73.9375 99.72265625 C-90.37459004 90.4767931 -101.35579237 76.95645591 -107 59 C-107.33 58.34 -107.66 57.68 -108 57 C-108.53491125 53.68487101 -108.7647269 50.34811726 -109 47 C-109.06703125 46.08734375 -109.1340625 45.1746875 -109.203125 44.234375 C-109.72884079 30.49066222 -105.47033243 16.52615096 -98 5 C-95 4 -95 4 -92.390625 5.07421875 C-91.35421875 5.60660156 -90.3178125 6.13898437 -89.25 6.6875 C-68.80568874 16.4444965 -46.52658304 17.41443344 -25.25097656 9.89648438 C-19.73973875 7.70155322 -14.57376445 4.79931701 -9.4140625 1.890625 C-3.74548581 -1.24849527 -3.74548581 -1.24849527 0 0 Z " fill="#33203B" transform="translate(444,521)"/>
<path d="M0 0 C3.56313026 1.11259799 5.32816162 3.34821681 7.625 6.1875 C11.84882227 11.09029184 16.54684057 14.56619977 22 18 C23.29357422 18.83917969 23.29357422 18.83917969 24.61328125 19.6953125 C26.98538751 21.23982844 26.98538751 21.23982844 30 21 C30 21.66 30 22.32 30 23 C37.01574831 25.43051723 44.0503161 26.80985144 51.37280273 27.90942383 C53.25964349 28.21001458 55.13217887 28.59779725 57 29 C57.495 29.99 57.495 29.99 58 31 C57.67 31.66 57.34 32.32 57 33 C55.97494949 47.04629827 56.74601342 60.5270852 60.9296875 73.9921875 C61 77 61 77 58.82421875 80 C57.79958999 81.02144928 56.75247976 82.0206937 55.6875 83 C55.13860107 83.52400391 54.58970215 84.04800781 54.02416992 84.58789062 C49.43031372 88.85555978 44.62689978 92.20980176 39 95 C38.25105469 95.38671875 37.50210938 95.7734375 36.73046875 96.171875 C25.48395319 101.60801912 14.20928082 101.23939766 2 101 C2 100.34 2 99.68 2 99 C1.12988281 98.81824219 1.12988281 98.81824219 0.2421875 98.6328125 C-7.64979175 96.93981365 -13.68249551 95.10776959 -20 90 C-20.65226562 89.55011719 -21.30453125 89.10023438 -21.9765625 88.63671875 C-35.72761689 78.84577367 -44.45432962 63.31770886 -48 47 C-49.03790521 37.6819177 -48.29976668 24.59953337 -44 16 C-40.97881516 15.36316683 -37.98069056 14.81942066 -34.9375 14.3125 C-23.41839237 12.2065793 -13.02387581 8.51330615 -3.25 1.9375 C-2.1775 1.298125 -1.105 0.65875 0 0 Z " fill="#33203A" transform="translate(448,623)"/>
<path d="M0 0 C3.66781764 0.65435244 6.24259542 2.27615602 9.375 4.25 C17.96138536 9.32282815 26.66253714 12.60380919 36.53198242 14.00195312 C45.29648679 15.2646612 45.29648679 15.2646612 47.640625 17.71484375 C48.48461361 19.87032446 48.81205187 21.69763537 49 24 C49.226875 25.134375 49.45375 26.26875 49.6875 27.4375 C51.43938994 47.4090453 45.34839758 64.74615929 33.18359375 80.5390625 C23.51912213 91.43104304 10.00116332 99.61108426 -4.6875 100.75 C-18.14238826 101.49827815 -29.37913986 98.00056012 -39.8125 89.25 C-50.04200673 79.50144657 -57.36558129 66.20686741 -58.17260742 51.95092773 C-58.23146144 48.63151163 -58.22404352 45.31969028 -58.1875 42 C-58.18685547 40.85660156 -58.18621094 39.71320312 -58.18554688 38.53515625 C-58.14062967 30.14062967 -58.14062967 30.14062967 -57 29 C-54.81495936 28.74846273 -52.6267013 28.52480002 -50.4375 28.3125 C-32.07262831 26.13797506 -15.84616156 17.15464572 -3 4 C-1.9700027 2.68970105 -0.95682302 1.36464922 0 0 Z " fill="#33203B" transform="translate(574,623)"/>
<path d="M0 0 C0.763125 0.969375 1.52625 1.93875 2.3125 2.9375 C6.90390271 8.48779516 12.98534261 12.16910297 19 16 C20.01900391 16.65355469 20.01900391 16.65355469 21.05859375 17.3203125 C27.69871719 21.07664068 35.63075364 22.31866709 43 24 C39.46208049 34.30212832 30.30664589 41.07063247 21 46 C17.7226367 47.54656641 14.43384251 48.84571848 11 50 C9.783125 50.4125 8.56625 50.825 7.3125 51.25 C-6.72790278 54.35753381 -20.89585279 51.42754488 -33 44 C-33.99 44.495 -33.99 44.495 -35 45 C-35.25265625 44.40832031 -35.5053125 43.81664062 -35.765625 43.20703125 C-37.14548898 40.73986939 -38.56361107 39.46288171 -40.75 37.6875 C-44.54979906 34.47015189 -48.14124499 31.10404601 -51 27 C-51 26.34 -51 25.68 -51 25 C-49.88882812 24.75765625 -48.77765625 24.5153125 -47.6328125 24.265625 C-31.23244088 20.60797489 -18.16496734 15.46240286 -5.93408203 3.60717773 C-2.19030185 0 -2.19030185 0 0 0 Z " fill="#33203A" transform="translate(516,711)"/>
<path d="M0 0 C-1.38517757 4.15553271 -4.18231075 5.04572961 -7.875 6.9375 C-8.55973389 7.29158936 -9.24446777 7.64567871 -9.94995117 8.01049805 C-29.61818242 18.00696121 -51.58166324 20.9090305 -73 15 C-78.12228755 13.29296845 -83.055175 11.16223164 -88 9 C-89.6640492 8.32682656 -91.32967086 7.65743652 -93 7 C-93.2784375 7.69609375 -93.556875 8.3921875 -93.84375 9.109375 C-94.63182602 11.07956506 -95.42364892 13.04825952 -96.21875 15.015625 C-98.71358374 21.31355895 -100.75803243 27.33853755 -102 34 C-102.33 34 -102.66 34 -103 34 C-103.95399242 22.74288943 -99.26458975 13.1284022 -93 4 C-89.01078748 5.27678336 -85.20418769 6.74442941 -81.375 8.4375 C-61.22036141 16.8518134 -39.28299463 17.10178071 -19 9 C-14.3204308 6.81019545 -9.81111048 4.33616664 -5.31640625 1.79296875 C-2 0 -2 0 0 0 Z " fill="#1A111B" transform="translate(440,521)"/>
<path d="M0 0 C0.66 0 1.32 0 2 0 C1.85997559 0.64541748 1.71995117 1.29083496 1.57568359 1.95581055 C-1.59326936 17.69830582 -2.38811459 35.99933806 4 51 C4.474375 52.15113281 4.94875 53.30226563 5.4375 54.48828125 C11.25728177 67.28900317 19.79487949 77.83489844 32 85 C33.36318359 85.81404297 33.36318359 85.81404297 34.75390625 86.64453125 C40.35807853 89.84802889 45.81202921 92.17404141 52 94 C52 94.33 52 94.66 52 95 C40.34161042 94.79899328 28.18085988 88.20250237 20 80 C20 79.34 20 78.68 20 78 C19.42894531 77.77699219 18.85789062 77.55398438 18.26953125 77.32421875 C7.73646386 71.17841867 1.22954754 54.10472774 -1.875 43 C-4.72352883 29.74814849 -5.84813494 12.68329688 0 0 Z " fill="#181019" transform="translate(441,430)"/>
<path d="M0 0 C6.60754318 0.46265835 11.65816651 1.74326239 17.625 4.5625 C18.40061279 4.92037598 19.17622559 5.27825195 19.9753418 5.64697266 C22.32699457 6.74477928 24.66516699 7.86691191 27 9 C27.68497559 9.3295166 28.36995117 9.6590332 29.07568359 9.99853516 C55.25961754 22.75581049 75.43987078 43.92542881 88.6875 69.6875 C89.0388501 70.35861816 89.3902002 71.02973633 89.75219727 71.72119141 C92.07034144 76.41006978 92.07034144 76.41006978 91.70703125 79.45703125 C91.47371094 79.96621094 91.24039063 80.47539062 91 81 C90.25556641 79.47632813 90.25556641 79.47632813 89.49609375 77.921875 C70.67236041 39.63433598 42.82850558 15.76668498 2.3828125 1.74609375 C1.59648437 1.49988281 0.81015625 1.25367188 0 1 C0 0.67 0 0.34 0 0 Z " fill="#547530" transform="translate(406,251)"/>
<path d="M0 0 C-1 2 -1 2 -3.1875 2.81640625 C-4.115625 3.06261719 -5.04375 3.30882812 -6 3.5625 C-6.9075 3.81128906 -7.815 4.06007813 -8.75 4.31640625 C-12.8123987 5.17087713 -16.87105109 5.60488253 -21 6 C-21.51140133 25.64830149 -20.6690506 42.20755413 -7.3125 57.875 C-1.16787229 64.30736707 5.80946771 67.80907449 14 71 C14 71.33 14 71.66 14 72 C7.48952257 73.02797012 3.10468558 69.56932278 -2 66 C-13.24396888 57.70328328 -20.74687369 45.26787367 -23.6184082 31.62915039 C-24.37161303 26.43960285 -24.24510032 21.23253455 -24.1875 16 C-24.18685547 14.85660156 -24.18621094 13.71320312 -24.18554688 12.53515625 C-24.14062967 4.14062967 -24.14062967 4.14062967 -23 3 C-20.5408627 2.62437998 -18.09404287 2.29371514 -15.625 2 C-10.32528505 1.36244031 -5.32046761 -0.14379642 0 0 Z " fill="#181018" transform="translate(540,649)"/>
<path d="M0 0 C2.77090805 2.45753154 4.25791592 5.1260132 6 8.375 C19.01885175 31.06891421 42.05431105 50.89761838 67.43261719 58.06738281 C70.27433602 58.79174252 73.12465468 59.42420667 76 60 C76.96164062 60.19464844 77.92328125 60.38929688 78.9140625 60.58984375 C79.60242188 60.72519531 80.29078125 60.86054688 81 61 C81 61.33 81 61.66 81 62 C63.48410479 63.53648204 43.5778714 52.06021199 30.5 41.25 C29.3208127 40.18030867 28.15571174 39.0950126 27 38 C26.18015625 37.24332031 25.3603125 36.48664063 24.515625 35.70703125 C15.01627233 26.62361069 5.01934764 15.31265387 0 3 C0 2.01 0 1.02 0 0 Z " fill="#537230" transform="translate(379,308)"/>
<path d="M0 0 C0.66 0 1.32 0 2 0 C2.09796875 1.05316406 2.1959375 2.10632813 2.296875 3.19140625 C4.26112 22.77668968 8.79468343 40.29727371 24 54 C31.29958606 59.62648725 39.2268294 64.10930093 48 67 C48 67.33 48 67.66 48 68 C38.07234198 68.58743539 29.60678775 62.31499374 22.3046875 56.109375 C12.5864702 47.21473544 5.9488749 36.60318485 2 24 C1.67 23.34 1.34 22.68 1 22 C-0.17604275 14.71143875 -0.11382279 7.3605403 0 0 Z " fill="#1A131C" transform="translate(335,556)"/>
<path d="M0 0 C4.14653402 0.49608646 5.7281262 2.54310204 8.3125 5.6875 C20.64121687 21.40255851 26.64217137 41.09612273 24.49267578 61.0234375 C23.80329596 66.63834601 22.76289186 71.02072236 20 76 C18.84208572 72.31009965 19.47622617 70.00402034 20.49316406 66.29296875 C24.21567922 49.45199459 20.40510562 30.68159809 11.94140625 15.984375 C9.42772965 12.12029267 6.67419151 8.5419711 3.69921875 5.0234375 C2 3 2 3 0 0 Z " fill="#1B131D" transform="translate(562,401)"/>
<path d="M0 0 C2.45472375 2.45472375 2.94503215 4.46568589 4.0625 7.75 C10.92706211 25.98146936 23.41014487 38.88544152 40.84375 47.38671875 C45.78273398 49.43700685 50.78499177 50.84110928 56 52 C56 52.33 56 52.66 56 53 C49.9394865 53.31649348 45.74004563 52.59248751 40.25 50.0625 C39.56043213 49.75183594 38.87086426 49.44117188 38.16040039 49.12109375 C31.39340486 45.93846791 25.69369161 41.86153668 20 37 C19.34773438 36.45988281 18.69546875 35.91976562 18.0234375 35.36328125 C9.82165528 27.92924577 4.02991944 17.51560276 1 7 C0.34 6.67 -0.32 6.34 -1 6 C-0.67 4.02 -0.34 2.04 0 0 Z " fill="#1A121B" transform="translate(321,469)"/>
<path d="M0 0 C2.86484059 0.63237284 5.33242953 1.53134523 7.96875 2.8125 C8.70480469 3.16570313 9.44085938 3.51890625 10.19921875 3.8828125 C11.73307292 4.62760417 13.26692708 5.37239583 14.80078125 6.1171875 C15.53683594 6.47039063 16.27289063 6.82359375 17.03125 7.1875 C17.69705078 7.51105469 18.36285156 7.83460938 19.04882812 8.16796875 C21.02044241 9.00871718 22.91095064 9.5345347 25 10 C27.66666667 10.66666667 30.33333333 11.33333333 33 12 C30 14 30 14 26.3125 13.5625 C20.81140434 12.20084266 15.72289464 9.82459533 10.58520508 7.47680664 C7.40989952 6.0269676 4.40278443 4.77108582 1 4 C-7.46668048 14.15419755 -10.95270741 25.38523013 -14 38 C-14.33 38 -14.66 38 -15 38 C-16.16478835 24.4884551 -9.69682463 13.55127614 -2 3 C-1.34 2.01 -0.68 1.02 0 0 Z " fill="#1B121C" transform="translate(463,527)"/>
<path d="M0 0 C-1.89567201 5.32426397 -6.68297591 7.0003923 -11.4375 9.3828125 C-24.87606673 15.4832145 -38.88111608 15.67951916 -52.87890625 11.21484375 C-57.07615206 9.58112229 -60.41296961 7.72614309 -64 5 C-64 4.34 -64 3.68 -64 3 C-63.3090625 3.27714844 -62.618125 3.55429687 -61.90625 3.83984375 C-58.77436002 5.09007402 -55.64030274 6.33352638 -52.5 7.5625 C-51.3965625 7.99691406 -50.293125 8.43132813 -49.15625 8.87890625 C-36.67421701 13.31249965 -23.30312664 11.14815521 -11.33203125 6.15234375 C-7.74328713 4.37901123 -3.88294455 0 0 0 Z " fill="#201722" transform="translate(546,749)"/>
<path d="M0 0 C0.33 0 0.66 0 1 0 C1.03963867 0.67353516 1.07927734 1.34707031 1.12011719 2.04101562 C1.88014498 24.17669888 1.88014498 24.17669888 9.12109375 44.76171875 C11 48 11 48 11.1875 50.6875 C9.31432761 54.33525677 6.67439069 55.25949915 3 57 C2.34 57 1.68 57 1 57 C1 56.34 1 55.68 1 55 C2.79036458 54.0234375 4.58072917 53.046875 6.37109375 52.0703125 C8.16618315 51.08589976 8.16618315 51.08589976 9 49 C8.34 49 7.68 49 7 49 C1.41135451 34.16724278 -5.08810022 15.95628228 0 0 Z " fill="#150D16" transform="translate(432,561)"/>
<path d="M0 0 C0.66 0.33 1.32 0.66 2 1 C1.32195313 1.64324219 0.64390625 2.28648437 -0.0546875 2.94921875 C-16.91311503 19.31730421 -28.76996185 38.60369577 -36 61 C-36.33 61 -36.66 61 -37 61 C-36.4937122 55.21934689 -35.35287418 50.63296189 -32.9375 45.375 C-32.62731934 44.68768799 -32.31713867 44.00037598 -31.99755859 43.29223633 C-26.68218327 31.74728359 -20.34482525 21.64674347 -12 12 C-10.94039062 10.60974609 -10.94039062 10.60974609 -9.859375 9.19140625 C-9.24578125 8.46824219 -8.6321875 7.74507813 -8 7 C-7.34 7 -6.68 7 -6 7 C-5.7525 6.401875 -5.505 5.80375 -5.25 5.1875 C-3.83629988 2.71352479 -2.34944617 1.56629745 0 0 Z " fill="#53732E" transform="translate(560,280)"/>
<path d="M0 0 C0.33 0 0.66 0 1 0 C1.22835376 5.32133454 0.48898318 9.88175392 -1.0625 14.9375 C-1.28655518 15.67476318 -1.51061035 16.41202637 -1.74145508 17.17163086 C-7.28835113 34.82118778 -16.09537433 50.80905549 -28 65 C-28.99 64.67 -29.98 64.34 -31 64 C-30.46632813 63.40316406 -29.93265625 62.80632812 -29.3828125 62.19140625 C-13.76495335 44.00659793 -5.49473052 23.06773965 0 0 Z " fill="#4F6F2C" transform="translate(657,270)"/>
<path d="M0 0 C3.85934339 0.66957283 6.73650536 2.48874178 10.0625 4.5 C14.36864736 7.10142441 14.36864736 7.10142441 19 9 C18.67 9.99 18.34 10.98 18 12 C16.95199219 11.4225 15.90398438 10.845 14.82421875 10.25 C13.44549098 9.49967196 12.06657486 8.74968992 10.6875 8 C9.99720703 7.6184375 9.30691406 7.236875 8.59570312 6.84375 C4.53322495 4.60000308 4.53322495 4.60000308 0 4 C-1.229003 5.43071754 -2.45107558 6.86875348 -3.61669922 8.3515625 C-10.15768788 16.1462599 -20.64106866 22.34556014 -30 26 C-30.99 26 -31.98 26 -33 26 C-33 25.34 -33 24.68 -33 24 C-31.97261719 23.52691406 -30.94523438 23.05382812 -29.88671875 22.56640625 C-17.94209304 16.92356045 -8.28630743 10.52584998 0 0 Z " fill="#1C121D" transform="translate(574,623)"/>
<path d="M0 0 C1.24193748 3.72581245 0.54831788 4.79216534 -0.875 8.375 C-2.27040552 11.91718324 -3.35789567 15.24300657 -4 19 C6.20046111 25.70052863 16.90137201 30.17018493 29 32 C29 32.33 29 32.66 29 33 C16.62522367 34.25703146 5.24306372 28.5312915 -5 22 C-6.8046875 20.3203125 -6.8046875 20.3203125 -8 19 C-3.01030928 3.01030928 -3.01030928 3.01030928 0 0 Z " fill="#170F18" transform="translate(589,593)"/>
<path d="M0 0 C0.66 0 1.32 0 2 0 C2.51046875 1.68802734 2.51046875 1.68802734 3.03125 3.41015625 C5.77702446 12.1987511 8.84539318 20.32507954 13.45898438 28.31469727 C16 32.73732753 16 32.73732753 16 36 C12.91611807 38.67435234 9.42883311 40.79253226 6 43 C4.96939453 43.68255859 4.96939453 43.68255859 3.91796875 44.37890625 C-0.43976104 47.10367411 -0.43976104 47.10367411 -3.1953125 46.59375 C-3.79085938 46.3978125 -4.38640625 46.201875 -5 46 C-4.03578125 45.45730469 -3.0715625 44.91460938 -2.078125 44.35546875 C-0.80200123 43.6329575 0.47403588 42.91029317 1.75 42.1875 C2.38421875 41.83107422 3.0184375 41.47464844 3.671875 41.10742188 C6.94804537 39.24751265 10.04985101 37.36160916 13 35 C11.49054566 30.99471522 9.61420909 27.28731513 7.625 23.5 C3.93379539 16.29921996 0 8.20933089 0 0 Z " fill="#181119" transform="translate(424,470)"/>
<path d="M0 0 C2.81742623 1.40871311 3.32345159 3.2745949 4.75 6.0625 C13.18370312 21.79186438 24.81491458 30.15099222 41 37 C41 37.33 41 37.66 41 38 C31.78005524 38.61925002 23.96341888 32.94571298 17.2109375 27.13037109 C10.32846701 20.89423517 3.70277143 13.62164916 0 5 C-0.125 2.25 -0.125 2.25 0 0 Z " fill="#19111A" transform="translate(452,599)"/>
<path d="M0 0 C3.89648438 2.63330078 3.89648438 2.63330078 4.828125 5.93359375 C6.12821579 16.73157001 6.60565771 26.65638873 4.6875 37.375 C4.51118042 38.37442627 4.51118042 38.37442627 4.33129883 39.39404297 C3.49103449 43.66462605 2.10120668 47.19781649 0 51 C-0.66 50.67 -1.32 50.34 -2 50 C-1.71125 49.27941406 -1.4225 48.55882812 -1.125 47.81640625 C1.73903829 39.53257329 2.38532889 32.03460344 2.375 23.3125 C2.37628906 22.26843994 2.37757813 21.22437988 2.37890625 20.14868164 C2.28328167 13.25447546 1.44878912 6.73795306 0 0 Z " fill="#281D2A" transform="translate(572,550)"/>
<path d="M0 0 C-5.16651438 12.84162534 -24.21547031 23.10482459 -36.3125 28.4375 C-44.65643325 31.75814085 -51.94848208 34.50286211 -61 34 C-57.54330201 32.03207787 -54.11206746 31.26178373 -50.25 30.375 C-32.29494898 25.84154274 -16.41004429 15.3088225 -3.890625 1.8359375 C-2 0 -2 0 0 0 Z " fill="#4F6D2C" transform="translate(626,336)"/>
<path d="M0 0 C4.55700425 0.52484692 7.192874 2.31507303 10.8125 5.0625 C11.78832031 5.79597656 12.76414062 6.52945312 13.76953125 7.28515625 C14.50558594 7.85105469 15.24164063 8.41695313 16 9 C15.37055392 12.56413626 13.8805596 14.80997708 11.8125 17.75 C6.53940511 25.81729156 2.5837964 35.4603891 1 45 C0.34 45 -0.32 45 -1 45 C-0.5599769 32.23932997 5.89742492 21.29663251 13 11 C10.28959413 8.13418095 7.57570788 5.92638948 4.25 3.8125 C2.81728139 2.89971959 1.39532619 1.96897652 0 1 C0 0.67 0 0.34 0 0 Z " fill="#19121A" transform="translate(426,390)"/>
<path d="M0 0 C0 0.66 0 1.32 0 2 C-15.9303805 9.5053748 -30.88180729 11.64493837 -48 8 C-48 7.34 -48 6.68 -48 6 C-47.27522461 6.01571045 -46.55044922 6.0314209 -45.80371094 6.04760742 C-42.45255651 6.11078143 -39.10152803 6.14924886 -35.75 6.1875 C-34.61046875 6.21263672 -33.4709375 6.23777344 -32.296875 6.26367188 C-20.94342895 6.3604342 -10.54663585 0 0 0 Z " fill="#211623" transform="translate(432,618)"/>
<path d="M0 0 C1.296875 1.35546875 1.296875 1.35546875 2.75 3.1875 C5.56315132 6.59654052 8.52899715 9.27278347 12 12 C11.67 12.66 11.34 13.32 11 14 C9.49428343 12.88266271 7.99555708 11.75589965 6.5 10.625 C5.6646875 9.99851562 4.829375 9.37203125 3.96875 8.7265625 C3.3190625 8.15679688 2.669375 7.58703125 2 7 C2 6.34 2 5.68 2 5 C-3.07265772 5 -5.0669433 7.14186668 -8.75 10.25 C-20.6951074 20 -20.6951074 20 -26 20 C-26 19.34 -26 18.68 -26 18 C-24.28665677 16.95801999 -22.5259654 15.9937434 -20.75 15.0625 C-15.03524226 11.85897785 -10.5093791 8.12681768 -5.83496094 3.55688477 C-2.17673511 0 -2.17673511 0 0 0 Z " fill="#1C121E" transform="translate(516,711)"/>
<path d="M0 0 C0.99 0.33 1.98 0.66 3 1 C-9.84714983 9.77551376 -22.07946412 13.81217131 -37.21923828 16.59863281 C-39.09143826 16.94588278 -39.09143826 16.94588278 -41 18 C-41 16.68 -41 15.36 -41 14 C-39.741875 13.79246094 -38.48375 13.58492187 -37.1875 13.37109375 C-24.73284063 11.17982653 -12.99181114 8.15783556 -2.24609375 1.22265625 C-1.50488281 0.81917969 -0.76367188 0.41570313 0 0 Z " fill="#1A121C" transform="translate(445,625)"/>
<path d="M0 0 C0.66 0 1.32 0 2 0 C4.88403893 13.79901701 4.36403703 27.83372729 -1 41 C-1.99 41 -2.98 41 -4 41 C-3.71125 40.13503906 -3.4225 39.27007812 -3.125 38.37890625 C0.63972911 25.60758564 0.41143559 13.22923663 0 0 Z " fill="#1E1720" transform="translate(703,437)"/>
<path d="M0 0 C0.99 1.0209375 0.99 1.0209375 2 2.0625 C2.99651517 3.04521302 3.99689927 4.0240101 5 5 C5.53496094 5.53109375 6.06992187 6.0621875 6.62109375 6.609375 C16.53940558 15.90912545 27.91737502 20.97787386 41 24 C41 24.33 41 24.66 41 25 C30.88244988 25.77827309 21.7867265 22.29565121 14 16 C13.28972656 15.46890625 12.57945312 14.9378125 11.84765625 14.390625 C7.26720378 10.94575892 3.31364445 7.70323729 0 3 C0 2.01 0 1.02 0 0 Z " fill="#19121A" transform="translate(414,697)"/>
<path d="M0 0 C5.11310018 -0.08970351 9.96109772 -0.0283474 15 1 C15.33 1.66 15.66 2.32 16 3 C15.67 3.66 15.34 4.32 15 5 C14.84504237 7.24974161 14.74989072 9.50371536 14.68359375 11.7578125 C14.66281265 12.42086395 14.64203156 13.08391541 14.62062073 13.76705933 C14.55520769 15.88626694 14.49627895 18.005599 14.4375 20.125 C14.39430691 21.56121081 14.35069236 22.99740902 14.30664062 24.43359375 C14.19953501 27.95559594 14.09824425 31.47773825 14 35 C11.80370217 31.45856475 11.76724248 28.60332753 11.8046875 24.484375 C11.81113281 23.23398437 11.81757813 21.98359375 11.82421875 20.6953125 C11.84097656 19.39335938 11.85773438 18.09140625 11.875 16.75 C11.88402344 15.43257812 11.89304687 14.11515625 11.90234375 12.7578125 C11.92591467 9.50502538 11.95881978 6.25260411 12 3 C11.30132812 2.95101562 10.60265625 2.90203125 9.8828125 2.8515625 C8.97273438 2.77679687 8.06265625 2.70203125 7.125 2.625 C6.22007812 2.55539062 5.31515625 2.48578125 4.3828125 2.4140625 C2 2 2 2 0 0 Z " fill="#19111B" transform="translate(490,651)"/>
<path d="M0 0 C0.99 0.495 0.99 0.495 2 1 C6.35441544 14.46273397 5.86020143 28.28635566 3 42 C2.67 42 2.34 42 2 42 C2.01047363 41.43716309 2.02094727 40.87432617 2.03173828 40.29443359 C2.19672916 30.04620251 2.2628123 20.1230848 0.4375 10.0078125 C-0.05251568 6.63895468 -0.06816293 3.39962624 0 0 Z " fill="#160D16" transform="translate(588,549)"/>
<path d="M0 0 C3.03067077 5.11057251 2.38147629 10.59572019 2.375 16.375 C2.37693359 18.12562744 2.37693359 18.12562744 2.37890625 19.91162109 C2.27323277 28.54442401 1.28068375 35.94474972 -2 44 C-2.33 44 -2.66 44 -3 44 C-3.16937078 40.0197866 -3.01580408 37.06270653 -2.03125 33.15625 C-0.52861681 26.65572815 -0.53812909 20.08161177 -0.375 13.4375 C-0.33632813 12.14263672 -0.29765625 10.84777344 -0.2578125 9.51367188 C-0.16420106 6.34258424 -0.07846597 3.17149245 0 0 Z " fill="#1B151D" transform="translate(599,438)"/>
<path d="M0 0 C9.13008819 1.35563027 16.1003277 7.74493226 22.4375 14.0625 C22.9332251 14.55661377 23.4289502 15.05072754 23.93969727 15.55981445 C32 23.86757659 32 23.86757659 32 28 C28.57757553 26.85919184 28.11925201 26.117411 26.125 23.25 C23.65046028 19.83306801 21.10540779 16.87818283 18 14 C17.26716797 13.29423828 17.26716797 13.29423828 16.51953125 12.57421875 C11.57295857 8.02713175 5.96037432 5.03946755 0 2 C0 1.34 0 0.68 0 0 Z " fill="#1A121A" transform="translate(663,387)"/>
<path d="M0 0 C0.99 0 1.98 0 3 0 C4.47265625 1.50390625 4.47265625 1.50390625 6.0625 3.5625 C10.08004582 8.3733192 14.73699004 11.65773483 20 15 C20.86367188 15.56074219 21.72734375 16.12148438 22.6171875 16.69921875 C24.98640818 18.23957727 24.98640818 18.23957727 28 18 C28 18.66 28 19.32 28 20 C30.31 20.66 32.62 21.32 35 22 C35 22.66 35 23.32 35 24 C24.86091924 22.76094691 16.52621424 16.79858999 8.875 10.375 C8.33093506 9.92012207 7.78687012 9.46524414 7.22631836 8.99658203 C4.11925739 6.28826464 1.91123246 3.65111305 0 0 Z " fill="#170E17" transform="translate(450,626)"/>
<path d="M0 0 C5.78201806 5.08116739 11.84005172 12.37812165 12.9375 20.1875 C12.958125 21.115625 12.97875 22.04375 13 23 C9.95044893 19.15175698 7.7840857 14.98649581 5.5 10.65625 C4.15031634 8.26618518 2.70206104 6.14783893 1 4 C-2.87929495 5.4547356 -6.4833536 7.2498811 -10.1328125 9.1953125 C-12 10 -12 10 -15 10 C-15 9.34 -15 8.68 -15 8 C-14.00097656 7.50628906 -13.00195312 7.01257813 -11.97265625 6.50390625 C-10.6692186 5.85687605 -9.36583602 5.20973489 -8.0625 4.5625 C-7.40314453 4.23701172 -6.74378906 3.91152344 -6.06445312 3.57617188 C-2.81709965 2.10888654 -2.81709965 2.10888654 0 0 Z " fill="#1B121C" transform="translate(559,526)"/>
<path d="M0 0 C0.33 0 0.66 0 1 0 C-0.27452536 12.82591975 -8.89329185 24.67757185 -18.3125 33.1875 C-19.199375 33.785625 -20.08625 34.38375 -21 35 C-21.99 34.67 -22.98 34.34 -24 34 C-23.29875 33.42894531 -22.5975 32.85789062 -21.875 32.26953125 C-11.40280741 23.31979057 -5.28904836 12.68863043 0 0 Z " fill="#18111A" transform="translate(619,677)"/>
<path d="M0 0 C-2.6059267 2.6059267 -4.67284262 2.76680305 -8.25 3.625 C-13.87016095 5.16198932 -18.6508867 7.14201006 -23.6875 10.0625 C-24.27499023 10.40297363 -24.86248047 10.74344727 -25.46777344 11.09423828 C-28.33475294 12.81794889 -30.66731702 14.62288497 -33 17 C-33.66 17 -34.32 17 -35 17 C-35 17.66 -35 18.32 -35 19 C-35.66 18.67 -36.32 18.34 -37 18 C-29.03932491 7.51520842 -13.3638991 -0.98991845 0 0 Z " fill="#1A1419" transform="translate(498,382)"/>
<path d="M0 0 C5.83062703 -0.28410586 10.17147608 0.40656641 15.5625 2.75 C16.18318359 3.00265625 16.80386719 3.2553125 17.44335938 3.515625 C20.68326516 4.86699342 23.74112461 6.37740192 26.77734375 8.140625 C29.86823377 10.06730052 29.86823377 10.06730052 33 11 C33 11.66 33 12.32 33 13 C33.99 13.66 34.98 14.32 36 15 C35.67 15.99 35.34 16.98 35 18 C34.01 17.175 33.02 16.35 32 15.5 C22.62340008 8.48836844 11.46336721 3.33153231 0 1 C0 0.67 0 0.34 0 0 Z " fill="#1A1519" transform="translate(525,382)"/>
<path d="M0 0 C4.2681401 0.62070403 8.21132243 1.61050115 12.3125 2.9375 C20.93913598 5.72815838 29.00686329 7.28778467 38.0625 7.625 C38.92810547 7.66367187 39.79371094 7.70234375 40.68554688 7.7421875 C42.79006359 7.83520481 44.8950009 7.91862669 47 8 C47 8.33 47 8.66 47 9 C30.1414088 9.54456873 15.06679844 9.60959911 0 1 C0 0.67 0 0.34 0 0 Z " fill="#150E16" transform="translate(598,529)"/>
<path d="M0 0 C2.4375 0.75 2.4375 0.75 5 2 C5.7890625 3.8671875 5.7890625 3.8671875 6 6 C4.87528849 7.84043701 3.73698725 9.67381426 2.53515625 11.46484375 C-2.21216184 19.30456243 -5.29213684 28.27466316 -8 37 C-8.33 37 -8.66 37 -9 37 C-8.51657256 30.54369936 -7.32373817 25.35920129 -4.75 19.4375 C-4.43861084 18.70023682 -4.12722168 17.96297363 -3.80639648 17.20336914 C-1.62361575 12.14570647 0.82756595 7.51831516 4 3 C2.68 2.34 1.36 1.68 0 1 C0 0.67 0 0.34 0 0 Z " fill="#160F17" transform="translate(442,523)"/>
<path d="M0 0 C2.26527312 2.2444908 2.94632841 3.59082626 3.36328125 6.76953125 C3.26688922 12.54563807 2.98076004 17.55290988 1 23 C0.67 23 0.34 23 0 23 C0 16.73 0 10.46 0 4 C-4.37296734 1.81351633 -7.5208216 1.76637929 -12.25 1.875 C-12.99507812 1.88402344 -13.74015625 1.89304688 -14.5078125 1.90234375 C-16.33868059 1.92581642 -18.16938238 1.96168475 -20 2 C-15.40496925 -2.59503075 -5.9391276 -1.35453787 0 0 Z " fill="#557433" transform="translate(658,245)"/>
<path d="M0 0 C0.66 0.66 1.32 1.32 2 2 C-4.50806239 4.871204 -10.80905186 5.19334717 -17.8125 5.1875 C-18.60769043 5.18814453 -19.40288086 5.18878906 -20.22216797 5.18945312 C-25.74103181 5.13970307 -30.6842631 4.57503315 -36 3 C-36 2.34 -36 1.68 -36 1 C-34.72125 1.165 -33.4425 1.33 -32.125 1.5 C-27.03892516 2.00134166 -21.98165116 2.14549588 -16.875 2.1875 C-16.1236377 2.20039062 -15.37227539 2.21328125 -14.59814453 2.2265625 C-10.70316885 2.23338233 -7.33034792 1.91904221 -3.5703125 0.86328125 C-1.80300781 0.43595703 -1.80300781 0.43595703 0 0 Z " fill="#1C141D" transform="translate(530,636)"/>
<path d="M0 0 C1.02416016 -0.01224609 2.04832031 -0.02449219 3.10351562 -0.03710938 C8.3177107 -0.04723403 12.69164106 0.07373103 17.5625 2.1875 C17.5625 2.8475 17.5625 3.5075 17.5625 4.1875 C16.2734375 4.02507812 14.984375 3.86265625 13.65625 3.6953125 C8.77696085 3.15507822 3.96768921 3.03849418 -0.9375 3.0625 C-1.72769531 3.05863281 -2.51789063 3.05476563 -3.33203125 3.05078125 C-8.77091063 3.05968285 -14.04116231 3.50756145 -19.4375 4.1875 C-18.4475 3.8575 -17.4575 3.5275 -16.4375 3.1875 C-16.4375 2.5275 -16.4375 1.8675 -16.4375 1.1875 C-10.9387055 -0.0539236 -5.61383955 0.00351965 0 0 Z " fill="#140F14" transform="translate(390.4375,379.8125)"/>
<path d="M0 0 C0.66 0 1.32 0 2 0 C4.30055975 10.98928093 4.8924815 21.00142837 2 32 C1.01 32.495 1.01 32.495 0 33 C0 22.11 0 11.22 0 0 Z " fill="#1E1521" transform="translate(620,643)"/>
<path d="M0 0 C0.33 0 0.66 0 1 0 C0.46319646 12.07807971 -8.62776281 22.91288544 -17 31 C-17.99 30.67 -18.98 30.34 -20 30 C-19.57589844 29.62230469 -19.15179687 29.24460937 -18.71484375 28.85546875 C-10.10933511 20.77952987 -5.02279819 10.54235664 0 0 Z " fill="#1C141D" transform="translate(580,478)"/>
<path d="M0 0 C0.804375 0.53625 1.60875 1.0725 2.4375 1.625 C3.70527646 2.33879011 4.97626482 3.04689818 6.25 3.75 C7.301875 4.36875 8.35375 4.9875 9.4375 5.625 C9.4375 6.285 9.4375 6.945 9.4375 7.625 C6.80973611 7.13837706 5.25795598 6.50530399 3 5 C0.53274765 3.37125389 0.53274765 3.37125389 -2.1875 3.875 C-3.98427527 4.44240272 -5.77495629 5.0291521 -7.5625 5.625 C-7.00369141 6.67300781 -7.00369141 6.67300781 -6.43359375 7.7421875 C-5.96050781 8.65226563 -5.48742187 9.56234375 -5 10.5 C-4.52433594 11.40492188 -4.04867187 12.30984375 -3.55859375 13.2421875 C-3.22988281 14.02851562 -2.90117188 14.81484375 -2.5625 15.625 C-2.8925 16.285 -3.2225 16.945 -3.5625 17.625 C-6.9127463 13.81265077 -8.73224789 10.29214289 -10.5625 5.625 C-3.56498051 -0.52170446 -3.56498051 -0.52170446 0 0 Z " fill="#201521" transform="translate(586.5625,520.375)"/>
<path d="M0 0 C-0.53254395 0.23074219 -1.06508789 0.46148437 -1.61376953 0.69921875 C-12.79210867 5.56794232 -23.57222158 10.66391609 -34 17 C-34 16.01 -34 15.02 -34 14 C-26.64069315 9.57291698 -19.21729753 5.45366875 -11.375 1.9375 C-10.36373047 1.47138306 -10.36373047 1.47138306 -9.33203125 0.99584961 C-5.73491545 -0.57334674 -3.7286161 -1.19313678 0 0 Z " fill="#537431" transform="translate(608,255)"/>
<path d="M0 0 C4.65184669 8.59829041 2.98389319 18.79918923 1 28 C-0.578125 31.45703125 -0.578125 31.45703125 -2 34 C-3.14732344 30.32937084 -2.53895354 28.05364931 -1.52050781 24.36328125 C-0.51670302 19.80566851 -0.52146914 15.15039511 -0.375 10.5 C-0.33632813 9.48679687 -0.29765625 8.47359375 -0.2578125 7.4296875 C-0.16436381 4.95329716 -0.07860127 2.47689849 0 0 Z " fill="#150E16" transform="translate(584,443)"/>
<path d="M0 0 C3.72060636 3.23709144 5.64141778 6.88454766 7.625 11.3125 C7.9240625 11.95123047 8.223125 12.58996094 8.53125 13.24804688 C11.14717114 18.96024635 13.38694135 24.61546776 13 31 C10.45906097 27.96518831 9.30080808 25.2821973 8.1875 21.5 C6.39665725 15.82086832 3.98334093 10.73627653 1.171875 5.49609375 C0 3 0 3 0 0 Z " fill="#181119" transform="translate(586,405)"/>
<path d="M0 0 C0.66 0 1.32 0 2 0 C2 0.66 2 1.32 2 2 C2.78697266 2.37511719 2.78697266 2.37511719 3.58984375 2.7578125 C6.04203385 4.02166413 8.40173607 5.40987912 10.77294922 6.81835938 C17.30389481 10.67455753 23.72238886 13.74245532 31 16 C31 16.33 31 16.66 31 17 C19.65675167 16.80442675 9.50516754 11.02041468 1.2578125 3.48046875 C0 2 0 2 0 0 Z " fill="#150E17" transform="translate(587,504)"/>
<path d="M0 0 C0.66 0 1.32 0 2 0 C1.67 9.57 1.34 19.14 1 29 C0.34 29 -0.32 29 -1 29 C-4.02543959 19.92368124 -1.68206731 9.1762779 0 0 Z " fill="#221723" transform="translate(402,644)"/>
<path d="M0 0 C2.22959035 3.34438553 2.89778529 6.40339401 3.75 10.25 C5.28494824 16.86951182 7.39891165 23.00526702 10.15722656 29.21386719 C12.10013576 33.69959273 12.10013576 33.69959273 11 37 C-1.02982184 12.87277304 -1.02982184 12.87277304 0 0 Z " fill="#51712E" transform="translate(366,270)"/>
<path d="M0 0 C0.66 0 1.32 0 2 0 C2.12117188 1.09957031 2.24234375 2.19914063 2.3671875 3.33203125 C2.53564042 4.82561331 2.70497066 6.31909658 2.875 7.8125 C2.96233398 8.58408447 3.04966797 9.35566895 3.13964844 10.15063477 C3.76662364 15.50056283 4.6401027 20.73829236 5.828125 25.99609375 C5.88484375 26.65738281 5.9415625 27.31867187 6 28 C5.34 28.66 4.68 29.32 4 30 C3.690625 29.05125 3.38125 28.1025 3.0625 27.125 C2.12605258 24.13919592 2.12605258 24.13919592 1 22 C-0.17604275 14.71143875 -0.11382279 7.3605403 0 0 Z " fill="#231B26" transform="translate(335,556)"/>
<path d="M0 0 C0.66 0.33 1.32 0.66 2 1 C1.03900391 2.14662109 1.03900391 2.14662109 0.05859375 3.31640625 C-6.48660851 11.34638803 -11.01366905 19.45656531 -15 29 C-16.28080389 25.11487707 -15.43586583 23.08149513 -13.6484375 19.4140625 C-13.29007812 18.72054688 -12.93171875 18.02703125 -12.5625 17.3125 C-12.20285156 16.60222656 -11.84320313 15.89195312 -11.47265625 15.16015625 C-8.42256512 9.35651063 -4.74756377 4.54553978 0 0 Z " fill="#171118" transform="translate(338,402)"/>
<path d="M0 0 C0.66 0 1.32 0 2 0 C-1.83278246 8.62376055 -9.9563943 13.70460512 -18 18 C-19.01320313 18.60714844 -19.01320313 18.60714844 -20.046875 19.2265625 C-22.43971533 20.17412727 -23.61703182 19.85106007 -26 19 C-25.02160156 18.5153125 -24.04320312 18.030625 -23.03515625 17.53125 C-14.16261624 13.03327865 -5.66446302 8.49669453 0 0 Z " fill="#181018" transform="translate(505,700)"/>
<path d="M0 0 C4.07643274 4.07643274 3.21896536 9.3499733 3.25 14.75 C3.270625 15.63171875 3.29125 16.5134375 3.3125 17.421875 C3.34615589 23.07606503 2.61073763 26.97089489 0 32 C-1.10051816 28.69844553 -0.83124612 28.1850753 0 25 C0.08059997 23.0482673 0.10762243 21.09399582 0.09765625 19.140625 C0.09443359 18.02558594 0.09121094 16.91054688 0.08789062 15.76171875 C0.07951172 14.60285156 0.07113281 13.44398438 0.0625 12.25 C0.05798828 11.07566406 0.05347656 9.90132812 0.04882812 8.69140625 C0.03705094 5.79421928 0.02060326 2.89713546 0 0 Z " fill="#19141C" transform="translate(686,547)"/>
<path d="M0 0 C1.67649313 3.2516169 3.13901153 6.56786908 4.5625 9.9375 C4.99691406 10.95714844 5.43132812 11.97679687 5.87890625 13.02734375 C6.88793715 15.70285775 7.53867978 18.18542833 8 21 C6.71186658 21.83878455 5.41936744 22.67086783 4.125 23.5 C3.40570313 23.9640625 2.68640625 24.428125 1.9453125 24.90625 C0 26 0 26 -2 26 C-2 25.34 -2 24.68 -2 24 C-0.20963542 23.0234375 1.58072917 22.046875 3.37109375 21.0703125 C5.16618315 20.08589976 5.16618315 20.08589976 6 18 C5.34 18 4.68 18 4 18 C1.13035626 11.74827614 -0.51137226 6.90352555 0 0 Z " fill="#1C131D" transform="translate(435,592)"/>
<path d="M0 0 C0.33 0 0.66 0 1 0 C2.29235715 4.91502758 2.11135517 9.77290102 2.0625 14.8125 C2.05798828 15.69615234 2.05347656 16.57980469 2.04882812 17.49023438 C2.03709866 19.66018559 2.01916495 21.83010172 2 24 C0.68 23.34 -0.64 22.68 -2 22 C-1.34 14.74 -0.68 7.48 0 0 Z " fill="#281C2A" transform="translate(447,560)"/>
<path d="M0 0 C1.24193748 3.72581245 0.54831788 4.79216534 -0.875 8.375 C-2.92753493 13.5572581 -2.92753493 13.5572581 -4 19 C-2.16641665 21.33454661 -2.16641665 21.33454661 0 23 C-3.90838866 23 -5.11594107 21.49432124 -8 19 C-3.01030928 3.01030928 -3.01030928 3.01030928 0 0 Z " fill="#1E1520" transform="translate(589,593)"/>
<path d="M0 0 C-1 2 -1 2 -3.1875 2.81640625 C-9.14744406 4.39744697 -14.85260386 5.49611507 -21 6 C-21.66 7.98 -22.32 9.96 -23 12 C-23.33 12 -23.66 12 -24 12 C-24.09765625 5.84765625 -24.09765625 5.84765625 -24 4 C-22.01785463 2.01785463 -18.34954173 2.32410905 -15.625 2 C-10.32528505 1.36244031 -5.32046761 -0.14379642 0 0 Z " fill="#1F1620" transform="translate(540,649)"/>
<path d="M0 0 C0.6875 1.671875 0.6875 1.671875 1 4 C-2.25314057 10.89152147 -7.37915007 17.82407222 -13 23 C-13.66 23 -14.32 23 -15 23 C-13.36676968 19.32084138 -11.07982634 16.36409422 -8.625 13.1875 C-5.38482897 8.95010438 -2.47322188 4.73138099 0 0 Z " fill="#1A121B" transform="translate(698,481)"/>
<path d="M0 0 C0 0.66 0 1.32 0 2 C-1.08539062 2.51949219 -2.17078125 3.03898437 -3.2890625 3.57421875 C-4.73458808 4.27820848 -6.1798887 4.98266025 -7.625 5.6875 C-8.33785156 6.02716797 -9.05070313 6.36683594 -9.78515625 6.71679688 C-14.4352721 8.99919319 -18.14864776 11.53135311 -22 15 C-22.66 14.67 -23.32 14.34 -24 14 C-18.05714161 7.48202628 -9.07140885 0 0 0 Z " fill="#19131A" transform="translate(608,385)"/>
<path d="M0 0 C3.27676518 0.40959565 5.80534751 1.34330841 8.6875 2.875 C12.60123318 4.93603439 16.52220919 6.11000892 20.80078125 7.19140625 C23.19843302 8.0729585 24.3545559 9.07765268 26 11 C16.86744254 10.36284483 7.16224957 6.72979965 0 1 C0 0.67 0 0.34 0 0 Z " fill="#1A111C" transform="translate(530,726)"/>
<path d="M0 0 C1.31226563 0.10570312 2.62453125 0.21140625 3.9765625 0.3203125 C7.375 0.875 7.375 0.875 10.375 2.875 C9.80990723 2.88958252 9.24481445 2.90416504 8.66259766 2.91918945 C6.10769981 2.99356058 3.55412502 3.09025242 1 3.1875 C0.11054688 3.21005859 -0.77890625 3.23261719 -1.6953125 3.25585938 C-2.54609375 3.29130859 -3.396875 3.32675781 -4.2734375 3.36328125 C-5.45172119 3.40255737 -5.45172119 3.40255737 -6.65380859 3.44262695 C-9.02540156 3.72389597 -9.02540156 3.72389597 -10.625 6.875 C-11.00999891 8.53049531 -11.35293135 10.1972433 -11.625 11.875 C-11.955 11.875 -12.285 11.875 -12.625 11.875 C-13.11328125 6.015625 -13.11328125 6.015625 -12.625 3.875 C-8.69105853 -0.50273219 -5.68123922 -0.5266632 0 0 Z " fill="#567532" transform="translate(375.625,244.125)"/>
<path d="M0 0 C0.33 0 0.66 0 1 0 C0.96519531 0.90363281 0.93039062 1.80726563 0.89453125 2.73828125 C0.86746094 3.91777344 0.84039063 5.09726562 0.8125 6.3125 C0.77769531 7.48425781 0.74289062 8.65601563 0.70703125 9.86328125 C0.75616561 12.90788838 0.75616561 12.90788838 2.125 14.8125 C4.7109418 16.45026314 7.20851823 17.0148267 10.1875 17.6875 C11.27417969 17.93886719 12.36085938 18.19023437 13.48046875 18.44921875 C14.31191406 18.63097656 15.14335938 18.81273437 16 19 C16 19.33 16 19.66 16 20 C10.0163872 20.31492699 6.3285657 19.77085416 1 17 C-1.69456005 14.30543995 -1.72381147 12.79759223 -2 9 C-1.50745372 5.95019325 -0.80188533 2.98221817 0 0 Z " fill="#587735" transform="translate(520,350)"/>
<path d="M0 0 C2.81996174 2.49816431 4.38317925 5.27529332 6.1875 8.5625 C9.59289704 14.5364978 13.54809577 19.7733488 18 25 C15 25 15 25 13.203125 23.234375 C0 6.44 0 6.44 0 0 Z " fill="#50702D" transform="translate(379,308)"/>
<path d="M0 0 C0.33 0 0.66 0 1 0 C0.62779458 9.86344368 -4.43734265 17.85828464 -11 25 C-11.33 24.01 -11.66 23.02 -12 22 C-10.7421875 19.94140625 -10.7421875 19.94140625 -8.875 17.5625 C-4.83408833 12.08014088 -2.36915026 6.35412649 0 0 Z " fill="#1B131D" transform="translate(684,580)"/>
<path d="M0 0 C7.92 0 15.84 0 24 0 C24 0.66 24 1.32 24 2 C15.85351368 2.76299944 8.11388044 3.21521251 0 2 C0 1.34 0 0.68 0 0 Z " fill="#1D141F" transform="translate(378,522)"/>
<path d="M0 0 C9.24 0 18.48 0 28 0 C28 0.33 28 0.66 28 1 C26.02 1.33 24.04 1.66 22 2 C22 2.33 22 2.66 22 3 C14.37685526 3.23576736 7.41430591 2.83717315 0 1 C0 0.67 0 0.34 0 0 Z " fill="#231825" transform="translate(373,536)"/>
<path d="M0 0 C-1 3 -1 3 -2.92578125 4.1328125 C-3.71339844 4.46023438 -4.50101563 4.78765625 -5.3125 5.125 C-6.09238281 5.45757813 -6.87226562 5.79015625 -7.67578125 6.1328125 C-11.85096553 7.69061235 -15.27689843 8.11575121 -19.75 8.0625 C-20.73484375 8.05347656 -21.7196875 8.04445313 -22.734375 8.03515625 C-23.48203125 8.02355469 -24.2296875 8.01195312 -25 8 C-25 7.67 -25 7.34 -25 7 C-24.01 6.82984375 -23.02 6.6596875 -22 6.484375 C-15.06839905 5.23245821 -6.32107747 0 0 0 Z " fill="#19111A" transform="translate(654,618)"/>
<path d="M0 0 C0 0.66 0 1.32 0 2 C-1.9151579 2.81604999 -3.83218834 3.62770632 -5.75 4.4375 C-6.81734375 4.88996094 -7.8846875 5.34242188 -8.984375 5.80859375 C-13.29838002 7.51296102 -16.60858367 8.12357127 -21.25 8.0625 C-22.14203125 8.05347656 -23.0340625 8.04445313 -23.953125 8.03515625 C-24.62859375 8.02355469 -25.3040625 8.01195312 -26 8 C-22.82432068 6.23825409 -19.78231348 5.3723698 -16.25 4.5625 C-11.18496177 3.34887226 -5.08848058 0 0 0 Z " fill="#171018" transform="translate(432,618)"/>
<path d="M0 0 C1 3 1 3 0.33496094 4.88525391 C-0.02823242 5.57538574 -0.39142578 6.26551758 -0.765625 6.9765625 C-1.16136719 7.729375 -1.55710937 8.4821875 -1.96484375 9.2578125 C-2.38894531 10.03898437 -2.81304688 10.82015625 -3.25 11.625 C-3.65863281 12.41390625 -4.06726563 13.2028125 -4.48828125 14.015625 C-7.61809125 19.87269708 -7.61809125 19.87269708 -11 21 C-9.34788061 16.5366827 -7.18875815 12.43033267 -4.9375 8.25 C-4.57333984 7.56550781 -4.20917969 6.88101562 -3.83398438 6.17578125 C-1.13267924 1.13267924 -1.13267924 1.13267924 0 0 Z " fill="#181019" transform="translate(595,483)"/>
<path d="M0 0 C0 0.33 0 0.66 0 1 C-5.23873913 2.06651855 -10.30378299 2.18340676 -15.625 2.1875 C-16.470625 2.19974609 -17.31625 2.21199219 -18.1875 2.22460938 C-19.00476563 2.22654297 -19.82203125 2.22847656 -20.6640625 2.23046875 C-21.40092285 2.23457764 -22.1377832 2.23868652 -22.89697266 2.24291992 C-25.29190606 1.96628204 -26.91827756 1.18665822 -29 0 C-9.03189066 -1.33257403 -9.03189066 -1.33257403 0 0 Z " fill="#0B050C" transform="translate(526,541)"/>
<path d="M0 0 C1.9375 1.0625 1.9375 1.0625 4 3 C5.04283655 8.16204093 5.1247892 13.20041563 5.0625 18.4375 C5.05798828 19.16904297 5.05347656 19.90058594 5.04882812 20.65429688 C5.03718148 22.43623419 5.01925191 24.21812863 5 26 C4.67 26 4.34 26 4 26 C3.91435791 25.42556152 3.82871582 24.85112305 3.74047852 24.25927734 C3.34834457 21.63110617 2.95542857 19.00305248 2.5625 16.375 C2.42779297 15.47136719 2.29308594 14.56773437 2.15429688 13.63671875 C1.47310556 9.08436703 0.77632452 4.53735301 0 0 Z " fill="#150E17" transform="translate(572,550)"/>
<path d="M0 0 C0 0.66 0 1.32 0 2 C-8.34337803 3.98352006 -17.60033833 3.59993556 -26 2 C-26 1.67 -26 1.34 -26 1 C-22.9792807 0.83100871 -19.95845177 0.66473871 -16.9375 0.5 C-16.08994141 0.45230469 -15.24238281 0.40460937 -14.36914062 0.35546875 C-9.57055312 0.09608564 -4.80550212 -0.05216285 0 0 Z " fill="#150D16" transform="translate(651,521)"/>
<path d="M0 0 C0.66 0 1.32 0 2 0 C2.39313474 2.0382524 2.76373122 4.08085895 3.125 6.125 C3.33382813 7.26195312 3.54265625 8.39890625 3.7578125 9.5703125 C4.02229903 13.3157831 3.49652109 15.58079618 2 19 C1.34 19.66 0.68 20.32 0 21 C-2.125 20.625 -2.125 20.625 -4 20 C-2.68 19.67 -1.36 19.34 0 19 C0 12.73 0 6.46 0 0 Z " fill="#5C7E36" transform="translate(502,347)"/>
<path d="M0 0 C-1.50338133 4.35595105 -4.30521766 5.64251354 -8.25 7.75 C-9.36890625 8.36359375 -10.4878125 8.9771875 -11.640625 9.609375 C-15.07578 11.03136939 -17.32892366 11.28923632 -21 11 C-18.77552685 8.77552685 -17.24482396 8.24277738 -14.3125 7.1875 C-10.01993354 5.54129145 -4.17569243 0 0 0 Z " fill="#1A111B" transform="translate(546,749)"/>
<path d="M0 0 C0.69921875 1.69140625 0.69921875 1.69140625 1 4 C-0.29296875 6.40234375 -0.29296875 6.40234375 -2.1875 8.9375 C-3.15429688 10.24654297 -3.15429688 10.24654297 -4.140625 11.58203125 C-7.9916318 16.58995816 -7.9916318 16.58995816 -10 19 C-10.99 18.67 -11.98 18.34 -13 18 C-12.154375 17.071875 -11.30875 16.14375 -10.4375 15.1875 C-6.3925689 10.49576608 -3.22355914 5.27404794 0 0 Z " fill="#170F18" transform="translate(569,603)"/>
<path d="M0 0 C0.33 0 0.66 0 1 0 C1.33608711 8.05364285 1.0517291 14.49783264 -2 22 C-2.99 22 -3.98 22 -5 22 C-4.72285156 20.91460937 -4.44570313 19.82921875 -4.16015625 18.7109375 C-3.7941437 17.26565719 -3.4282654 15.82034288 -3.0625 14.375 C-2.88009766 13.66214844 -2.69769531 12.94929688 -2.50976562 12.21484375 C-1.48683201 8.16030687 -0.62042633 4.14052941 0 0 Z " fill="#100B11" transform="translate(704,456)"/>
<path d="M0 0 C0 0.99 0 1.98 0 3 C-2.046875 4.75390625 -2.046875 4.75390625 -4.75 6.5625 C-5.63171875 7.16191406 -6.5134375 7.76132812 -7.421875 8.37890625 C-13.35238095 12.10793651 -13.35238095 12.10793651 -16.25 11.625 C-16.8275 11.41875 -17.405 11.2125 -18 11 C-17.03578125 10.45730469 -16.0715625 9.91460938 -15.078125 9.35546875 C-13.80200123 8.6329575 -12.52596412 7.91029317 -11.25 7.1875 C-10.61578125 6.83107422 -9.9815625 6.47464844 -9.328125 6.10742188 C-6.05195463 4.24751265 -2.95014899 2.36160916 0 0 Z " fill="#19111A" transform="translate(558,510)"/>
<path d="M0 0 C-5.87130681 4.03652343 -11.92692202 5.3536539 -19 5 C-19 4.34 -19 3.68 -19 3 C-16.21019334 2.30404181 -13.41859396 1.61793326 -10.625 0.9375 C-9.43390625 0.63875977 -9.43390625 0.63875977 -8.21875 0.33398438 C-2.2265625 -1.11328125 -2.2265625 -1.11328125 0 0 Z " fill="#150E16" transform="translate(539,523)"/>
<path d="M0 0 C2 1 2 1 2.66796875 2.6796875 C4.16378884 9.0003709 3.8863917 14.59162761 3 21 C2.67 21 2.34 21 2 21 C1.66034526 18.81347261 1.32857523 16.62571975 1 14.4375 C0.814375 13.21933594 0.62875 12.00117187 0.4375 10.74609375 C0.01444923 7.12372152 -0.07501425 3.64287954 0 0 Z " fill="#1E141E" transform="translate(588,549)"/>
<path d="M0 0 C-5.91401451 3.18446935 -12.3048892 4.34333902 -19 4 C-19 3.34 -19 2.68 -19 2 C-12.65176798 -0.30844801 -6.70518586 -0.19818283 0 0 Z " fill="#181118" transform="translate(628,381)"/>
<path d="M0 0 C3 1 3 1 4.38671875 3.29296875 C4.81597656 4.24816406 5.24523437 5.20335937 5.6875 6.1875 C6.12449219 7.12980469 6.56148437 8.07210937 7.01171875 9.04296875 C8.06881964 12.2059149 8.18151604 14.68855875 8 18 C6.2255239 15.33828585 5.14970819 13.08010934 4 10.125 C3.505 8.86042969 3.505 8.86042969 3 7.5703125 C2.505 6.29800781 2.505 6.29800781 2 5 C1.33492625 3.33269705 0.66872504 1.66584184 0 0 Z " fill="#160F18" transform="translate(678,528)"/>
<path d="M0 0 C0.99 0.33 1.98 0.66 3 1 C2.01 1.33 1.02 1.66 0 2 C0.37253906 2.69867187 0.74507812 3.39734375 1.12890625 4.1171875 C1.60199219 5.02726563 2.07507813 5.93734375 2.5625 6.875 C3.03816406 7.77992188 3.51382813 8.68484375 4.00390625 9.6171875 C4.33261719 10.40351562 4.66132812 11.18984375 5 12 C4.67 12.66 4.34 13.32 4 14 C0.6497537 10.18765077 -1.16974789 6.66714289 -3 2 C-2.01 1.34 -1.02 0.68 0 0 Z " fill="#180F19" transform="translate(579,524)"/>
<path d="M0 0 C0 0.66 0 1.32 0 2 C-1.70129086 2.84761822 -3.41143084 3.6774868 -5.125 4.5 C-6.55199219 5.19609375 -6.55199219 5.19609375 -8.0078125 5.90625 C-11.21196631 7.07748116 -13.61717313 7.20076124 -17 7 C-14.03171001 5.02114001 -11.22552946 3.74135003 -7.9375 2.375 C-6.87402344 1.92898438 -5.81054688 1.48296875 -4.71484375 1.0234375 C-2 0 -2 0 0 0 Z " fill="#170F18" transform="translate(669,514)"/>
<path d="M0 0 C0.66 0 1.32 0 2 0 C0.35433477 5.68502535 -2.29032784 10.76681636 -5 16 C-5.33 16 -5.66 16 -6 16 C-5.59683075 9.68368172 -3.28767869 5.35006016 0 0 Z " fill="#1A121B" transform="translate(449,412)"/>
<path d="M0 0 C0.66 0.33 1.32 0.66 2 1 C1.53328373 6.41390868 0.75702189 10.20517932 -2 15 C-2.66 14.67 -3.32 14.34 -4 14 C-2.68 9.38 -1.36 4.76 0 0 Z " fill="#1A111B" transform="translate(574,586)"/>
<path d="M0 0 C0.66 0 1.32 0 2 0 C0.66666667 6 -0.66666667 12 -2 18 C-2.33 18 -2.66 18 -3 18 C-3.31985731 11.28299653 -2.4793824 6.24273068 0 0 Z " fill="#170F18" transform="translate(340,537)"/>
<path d="M0 0 C0.66 0 1.32 0 2 0 C1.34 3.63 0.68 7.26 0 11 C-0.66 11 -1.32 11 -2 11 C-2 13.31 -2 15.62 -2 18 C-2.33 18 -2.66 18 -3 18 C-3.21586845 12.06361776 -2.71249434 6.71248111 -1 1 C-0.67 0.67 -0.34 0.34 0 0 Z " fill="#211823" transform="translate(441,430)"/>
<path d="M0 0 C5.83094895 -0.21203451 11.44413776 0.03052586 17 2 C17.33 2.66 17.66 3.32 18 4 C11.85845775 3.41509121 5.99320151 2.45933748 0 1 C0 0.67 0 0.34 0 0 Z " fill="#567732" transform="translate(387,247)"/>
<path d="M0 0 C6.63498399 0.35544557 10.63187218 2.13095043 16 6 C14 7 14 7 10.99609375 6.07421875 C9.82175781 5.61660156 8.64742188 5.15898437 7.4375 4.6875 C5.67212891 4.01267578 5.67212891 4.01267578 3.87109375 3.32421875 C1 2 1 2 0 0 Z " fill="#171116" transform="translate(409,383)"/>
<path d="M0 0 C1.77074917 -0.02705729 3.54161711 -0.04642195 5.3125 -0.0625 C6.29863281 -0.07410156 7.28476562 -0.08570313 8.30078125 -0.09765625 C11 0 11 0 14 1 C13.67 1.99 13.34 2.98 13 4 C8.71 3.01 4.42 2.02 0 1 C0 0.67 0 0.34 0 0 Z " fill="#1A111B" transform="translate(606,638)"/>
<path d="M0 0 C3.85025879 0.60355408 6.86101159 1.76772603 10.3125 3.5625 C11.19550781 4.01753906 12.07851563 4.47257813 12.98828125 4.94140625 C13.65214844 5.29074219 14.31601562 5.64007812 15 6 C14.67 6.99 14.34 7.98 14 9 C11.85035318 7.88182488 9.70542434 6.75592552 7.5625 5.625 C6.95083984 5.30789063 6.33917969 4.99078125 5.70898438 4.6640625 C1.11328125 2.2265625 1.11328125 2.2265625 0 0 Z " fill="#180F19" transform="translate(578,626)"/>
<path d="M0 0 C4.95 0 9.9 0 15 0 C10.4732896 3.3950328 10.4732896 3.3950328 6.375 2.8125 C5.21097656 2.66748047 5.21097656 2.66748047 4.0234375 2.51953125 C2 2 2 2 0 0 Z " fill="#140E16" transform="translate(555,721)"/>
<path d="M0 0 C2.77314087 1.38657043 3.25953457 3.1201136 4.625 5.875 C5.29402344 7.20144531 5.29402344 7.20144531 5.9765625 8.5546875 C7 11 7 11 7 14 C3.2897619 10.54564039 0.16159742 7.42396127 -0.1875 2.1875 C-0.125625 1.465625 -0.06375 0.74375 0 0 Z " fill="#1A111B" transform="translate(406,683)"/>
<path d="M0 0 C1.32 0.66 2.64 1.32 4 2 C2.68 2 1.36 2 0 2 C-0.103125 2.515625 -0.20625 3.03125 -0.3125 3.5625 C-1.24263866 6.86026435 -2.61395512 9.86633332 -4 13 C-4.66 12.67 -5.32 12.34 -6 12 C-4.68139111 7.38486888 -2.78644563 3.90102388 0 0 Z " fill="#241926" transform="translate(347,525)"/>
<path d="M0 0 C0.33 0 0.66 0 1 0 C2.73955334 6.43013467 3.24991456 12.34949576 3 19 C-0.83508741 13.24736889 -0.11884965 6.68199149 0 0 Z " fill="#0E090D" transform="translate(432,577)"/>
<path d="M0 0 C0.33 0.99 0.66 1.98 1 3 C-0.6209213 4.17232685 -2.24686833 5.3377077 -3.875 6.5 C-4.77992188 7.1496875 -5.68484375 7.799375 -6.6171875 8.46875 C-9 10 -9 10 -11 10 C-11 9.34 -11 8.68 -11 8 C-9.217871 6.55925285 -7.37339724 5.19489351 -5.5 3.875 C-4.4790625 3.15054687 -3.458125 2.42609375 -2.40625 1.6796875 C-1.6121875 1.12539063 -0.818125 0.57109375 0 0 Z " fill="#1A121A" transform="translate(681,504)"/>
<path d="M0 0 C0 0.66 0 1.32 0 2 C-1.74784829 2.36463732 -3.49840502 2.7163078 -5.25 3.0625 C-6.71179688 3.35833984 -6.71179688 3.35833984 -8.203125 3.66015625 C-10.868119 3.98397535 -12.48871723 3.85503199 -15 3 C-14.01 3 -13.02 3 -12 3 C-12 2.34 -12 1.68 -12 1 C-7.9472484 0.01751476 -4.16138263 -0.08159574 0 0 Z " fill="#1B161B" transform="translate(386,380)"/>
<path d="M0 0 C0 0.33 0 0.66 0 1 C2.97 1.495 2.97 1.495 6 2 C6 2.33 6 2.66 6 3 C-0.0018137 3.21824777 -5.19233704 2.5056904 -11 1 C-6.8204355 -1.78637633 -4.85331323 -0.79562512 0 0 Z " fill="#261B28" transform="translate(626,521)"/>
<path d="M0 0 C5.11310018 -0.08970351 9.96109772 -0.0283474 15 1 C15.33 1.66 15.66 2.32 16 3 C15.34 3.66 14.68 4.32 14 5 C14 4.01 14 3.02 14 2 C12.989375 2.20625 11.97875 2.4125 10.9375 2.625 C6.50493131 3.0471494 4.13891038 2.4359485 0 1 C0 0.67 0 0.34 0 0 Z " fill="#241925" transform="translate(490,651)"/>
<path d="M0 0 C3.35250701 0.57575664 4.93818629 1.59306263 7.25 4.0625 C8.03117187 4.88427734 8.03117187 4.88427734 8.828125 5.72265625 C9.21484375 6.14417969 9.6015625 6.56570313 10 7 C9.67 7.99 9.34 8.98 9 10 C7.49702124 8.52386015 5.99768715 7.04400843 4.5 5.5625 C3.6646875 4.73878906 2.829375 3.91507813 1.96875 3.06640625 C0 1 0 1 0 0 Z " fill="#201621" transform="translate(461,617)"/>
<path d="M0 0 C2 1.375 2 1.375 4 3 C4 3.66 4 4.32 4 5 C4.61875 5.268125 5.2375 5.53625 5.875 5.8125 C8 7 8 7 10 10 C6.7451198 9.41978222 5.06347592 8.47352859 2.75 6.125 C2.22921875 5.61195313 1.7084375 5.09890625 1.171875 4.5703125 C0 3 0 3 0 0 Z " fill="#1A111B" transform="translate(468,739)"/>
<path d="M0 0 C-1.32 1.32 -2.64 2.64 -4 4 C-4 3.34 -4 2.68 -4 2 C-6.31 2.33 -8.62 2.66 -11 3 C-10 1 -10 1 -7.1875 -0.1875 C-4.14038924 -0.96421451 -2.86250637 -1.10096399 0 0 Z " fill="#1E1421" transform="translate(489,732)"/>
<path d="M0 0 C0.33 0 0.66 0 1 0 C0.50269348 4.97306516 -0.55302334 8.63799813 -3 13 C-3.66 12.67 -4.32 12.34 -5 12 C-3.68938409 7.76570244 -2.05643741 3.92592596 0 0 Z " fill="#150F17" transform="translate(580,478)"/>
<path d="M0 0 C1.75140143 0.45294865 3.50107344 0.91258748 5.25 1.375 C6.71179688 1.75785156 6.71179688 1.75785156 8.203125 2.1484375 C10.65837303 2.89598509 12.75617405 3.77123817 15 5 C9.01006953 5.3152595 5.36439644 4.68219822 0 2 C0 1.34 0 0.68 0 0 Z " fill="#4F6D2B" transform="translate(521,365)"/>
<path d="M0 0 C0.33 0.99 0.66 1.98 1 3 C-0.21484375 4.82421875 -0.21484375 4.82421875 -1.9375 6.6875 C-2.50339844 7.31011719 -3.06929687 7.93273437 -3.65234375 8.57421875 C-4.09707031 9.04472656 -4.54179688 9.51523437 -5 10 C-5.99 9.67 -6.98 9.34 -8 9 C-5.36 6.03 -2.72 3.06 0 0 Z " fill="#1B131D" transform="translate(555,738)"/>
<path d="M0 0 C2.93814003 1.46907001 3.3286226 3.59447806 4.625 6.5625 C5.07101562 7.57441406 5.51703125 8.58632813 5.9765625 9.62890625 C6.31429688 10.41136719 6.65203125 11.19382812 7 12 C6.01 12 5.02 12 4 12 C3.32332002 10.75539217 2.65905281 9.50403104 2 8.25 C1.62875 7.55390625 1.2575 6.8578125 0.875 6.140625 C0 4 0 4 0 0 Z " fill="#140D16" transform="translate(444,482)"/>
<path d="M0 0 C3 1 3 1 4.6875 3.75 C5.93950669 6.85020705 6.28970125 8.71671912 6 12 C3.25207517 8.59780735 0 4.51535412 0 0 Z " fill="#1A131B" transform="translate(695,417)"/>
<path d="M0 0 C-1.62170379 1.00533667 -3.24747237 2.00411907 -4.875 3 C-6.23238281 3.8353125 -6.23238281 3.8353125 -7.6171875 4.6875 C-10 6 -10 6 -12 6 C-10.90012224 2.70036671 -10.54413252 2.38935228 -7.6875 0.75 C-7.09324219 0.39421875 -6.49898438 0.0384375 -5.88671875 -0.328125 C-3.5508436 -1.15994803 -2.30725794 -0.7945524 0 0 Z " fill="#19121A" transform="translate(360,389)"/>
<path d="M0 0 C1.15957207 3.47871621 0.77456651 4.34219645 -0.4375 7.6875 C-0.72496094 8.49574219 -1.01242187 9.30398438 -1.30859375 10.13671875 C-1.65083984 11.05904297 -1.65083984 11.05904297 -2 12 C-2.33 12 -2.66 12 -3 12 C-3.15384615 4 -3.15384615 4 -2 1 C-1.34 0.67 -0.68 0.34 0 0 Z " fill="#150F16" transform="translate(599,470)"/>
<path d="M0 0 C-1.5830577 4.2742558 -4.50568404 6.26531794 -8 9 C-8 6 -8 6 -6.7578125 4.39453125 C-5.94957031 3.61142578 -5.94957031 3.61142578 -5.125 2.8125 C-4.59132813 2.28269531 -4.05765625 1.75289063 -3.5078125 1.20703125 C-2 0 -2 0 0 0 Z " fill="#587734" transform="translate(626,336)"/>
<path d="M0 0 C0.33 0.66 0.66 1.32 1 2 C3.3140622 2.73075648 5.64828869 3.40138258 8 4 C8 4.66 8 5.32 8 6 C4.26512223 5.5020163 2.18762365 5.12508244 -1 3 C-0.67 2.01 -0.34 1.02 0 0 Z " fill="#1D141F" transform="translate(477,644)"/>
<path d="M0 0 C3.63 0 7.26 0 11 0 C7.31265242 2.45823172 4.30300029 3.01242616 0 4 C0 2.68 0 1.36 0 0 Z " fill="#130A13" transform="translate(404,639)"/>
<path d="M0 0 C3.9492568 0.55105909 7.34920174 1.38935371 11 3 C11 3.33 11 3.66 11 4 C3.375 3.125 3.375 3.125 0 2 C0 1.34 0 0.68 0 0 Z " fill="#191119" transform="translate(594,634)"/>
<path d="M0 0 C0.66 0 1.32 0 2 0 C1.5020163 3.73487777 1.12508244 5.81237635 -1 9 C-1.66 8.67 -2.32 8.34 -3 8 C-2.01 5.36 -1.02 2.72 0 0 Z " fill="#1C141E" transform="translate(702,470)"/>
<path d="M0 0 C0.66 0.33 1.32 0.66 2 1 C1.814375 1.556875 1.62875 2.11375 1.4375 2.6875 C0.92448835 5.399133 1.3359276 7.34371039 2 10 C-0.52588702 7.63707344 -1.88820837 6.33537489 -3 3 C-2.01 2.01 -1.02 1.02 0 0 Z " fill="#282028" transform="translate(584,397)"/>
<path d="M0 0 C0.66 0.99 1.32 1.98 2 3 C1.15955106 6.43183318 0.51471866 8.48528134 -2 11 C-4.125 10.625 -4.125 10.625 -6 10 C-4.68 9.67 -3.36 9.34 -2 9 C-1.34 6.03 -0.68 3.06 0 0 Z " fill="#516F2F" transform="translate(504,357)"/>
<path d="M0 0 C2.05078125 0.03255208 4.1015625 0.06510417 6.15234375 0.09765625 C6.15234375 0.75765625 6.15234375 1.41765625 6.15234375 2.09765625 C3.33984375 2.72265625 3.33984375 2.72265625 0.15234375 3.09765625 C-0.83765625 2.43765625 -1.82765625 1.77765625 -2.84765625 1.09765625 C-1.84765625 0.09765625 -1.84765625 0.09765625 0 0 Z " fill="#160D16" transform="translate(621.84765625,624.90234375)"/>
<path d="M0 0 C0.33 0.99 0.66 1.98 1 3 C-3.39453125 7.00390625 -3.39453125 7.00390625 -5 8 C-5.99 7.67 -6.98 7.34 -8 7 C-5.36 4.69 -2.72 2.38 0 0 Z " fill="#18121A" transform="translate(670,605)"/>
<path d="M0 0 C0.66 0 1.32 0 2 0 C0.66511872 3.59391114 -0.96022723 6.75490696 -3 10 C-4 7 -4 7 -3.22265625 5.17578125 C-2.1484375 3.45052083 -1.07421875 1.72526042 0 0 Z " fill="#567432" transform="translate(644,308)"/>
<path d="M0 0 C-3.4019487 2.09350689 -6.05272412 2.17942163 -10 2 C-10 1.34 -10 0.68 -10 0 C-6.42355152 -1.2380014 -3.66305234 -0.74926071 0 0 Z " fill="#1D1421" transform="translate(530,526)"/>
<path d="M0 0 C0.33 0 0.66 0 1 0 C1.25532751 3.06393013 1.21861333 4.63233212 -0.375 7.3125 C-1.179375 8.1478125 -1.179375 8.1478125 -2 9 C-2.66 9 -3.32 9 -4 9 C-2.80100302 5.9168649 -1.52299523 2.93720508 0 0 Z " fill="#241927" transform="translate(588,495)"/>
<path d="M0 0 C3.08089673 2.77280706 4.68775452 5.06326356 6 9 C3 8 3 8 1.3125 5.625 C0 3 0 3 0 0 Z " fill="#1F1720" transform="translate(689,406)"/>
<path d="M0 0 C0.99 0.33 1.98 0.66 3 1 C3 1.66 3 2.32 3 3 C3.99 3.66 4.98 4.32 6 5 C5.67 5.99 5.34 6.98 5 8 C3.02 6.35 1.04 4.7 -1 3 C-0.67 2.01 -0.34 1.02 0 0 Z " fill="#1F1920" transform="translate(555,392)"/>
<path d="M0 0 C0.99 0.33 1.98 0.66 3 1 C-0.55639236 3.30119506 -3.94718288 4.77472971 -8 6 C-5.63055987 3.38114512 -3.16266898 1.58133449 0 0 Z " fill="#3D2345" transform="translate(358,389)"/>
<path d="M0 0 C4.37859255 0.50522222 6.81651224 3.17827222 10 6 C9.01 6.495 9.01 6.495 8 7 C6.66382648 6.02471263 5.3311249 5.04466681 4 4.0625 C3.2575 3.51722656 2.515 2.97195313 1.75 2.41015625 C1.1725 1.94480469 0.595 1.47945313 0 1 C0 0.67 0 0.34 0 0 Z " fill="#50702D" transform="translate(452,273)"/>
<path d="M0 0 C0 0.66 0 1.32 0 2 C-3.47325181 3.1577506 -6.36067448 3.06866652 -10 3 C-6.26223701 0.50815801 -4.5227786 0 0 0 Z " fill="#150E15" transform="translate(582,719)"/>
<path d="M0 0 C2.3125 0.1875 2.3125 0.1875 5 1 C6.8125 3.5625 6.8125 3.5625 8 6 C4.63408134 4.55746343 2.48952921 2.66735273 0 0 Z " fill="#231724" transform="translate(464,511)"/>
<path d="M0 0 C0.33 0 0.66 0 1 0 C1.86516528 4.49885947 2.30903272 7.01647791 0 11 C-0.19406478 9.35492782 -0.38007935 7.70890406 -0.5625 6.0625 C-0.66691406 5.14597656 -0.77132813 4.22945313 -0.87890625 3.28515625 C-0.91886719 2.53105469 -0.95882813 1.77695312 -1 1 C-0.67 0.67 -0.34 0.34 0 0 Z " fill="#281D29" transform="translate(320,462)"/>
<path d="M0 0 C0.66 0.33 1.32 0.66 2 1 C0.02 3.31 -1.96 5.62 -4 8 C-4.33 7.01 -4.66 6.02 -5 5 C-3.35 3.35 -1.7 1.7 0 0 Z " fill="#110B12" transform="translate(457,403)"/>
<path d="M0 0 C4.31392226 0.4793247 6.16569547 1.7457985 9 5 C4.68607774 4.5206753 2.83430453 3.2542015 0 0 Z " fill="#161017" transform="translate(546,389)"/>
<path d="M0 0 C0.66 0.33 1.32 0.66 2 1 C0.8803014 2.00593243 -0.2459412 3.0045849 -1.375 4 C-2.00148438 4.556875 -2.62796875 5.11375 -3.2734375 5.6875 C-5 7 -5 7 -7 7 C-7 6.34 -7 5.68 -7 5 C-5.46875 3.7109375 -5.46875 3.7109375 -3.5 2.375 C-2.8503125 1.92898438 -2.200625 1.48296875 -1.53125 1.0234375 C-1.0259375 0.68570312 -0.520625 0.34796875 0 0 Z " fill="#52722D" transform="translate(570,272)"/>
<path d="M0 0 C-1 3 -1 3 -4 5 C-6.1875 4.625 -6.1875 4.625 -8 4 C-2.25 0 -2.25 0 0 0 Z " fill="#160F17" transform="translate(593,713)"/>
<path d="M0 0 C0.99 0.33 1.98 0.66 3 1 C2.67 2.32 2.34 3.64 2 5 C0.35 4.67 -1.3 4.34 -3 4 C-2.01 2.68 -1.02 1.36 0 0 Z " fill="#251C28" transform="translate(677,524)"/>
<path d="M0 0 C3.0625 1.25 3.0625 1.25 6 3 C6.33 3.99 6.66 4.98 7 6 C3.54074837 4.7508258 0.85306797 3.32472205 -2 1 C-1.34 0.67 -0.68 0.34 0 0 Z " fill="#1F1620" transform="translate(599,512)"/>
<path d="M0 0 C0.99 0.495 0.99 0.495 2 1 C2 1.99 2 2.98 2 4 C1.34 3.67 0.68 3.34 0 3 C0 2.01 0 1.02 0 0 Z " fill="#46344A" transform="translate(401,679)"/>
<path d="M0 0 C0.66 0.33 1.32 0.66 2 1 C2 1.66 2 2.32 2 3 C1.01 2.67 0.02 2.34 -1 2 C-0.67 1.34 -0.34 0.68 0 0 Z " fill="#402E45" transform="translate(585,552)"/>
<path d="M0 0 C0.99 0.33 1.98 0.66 3 1 C2.01 1.33 1.02 1.66 0 2 C0 1.34 0 0.68 0 0 Z " fill="#433246" transform="translate(501,763)"/>
<path d="M0 0 C0 3 0 3 0 3 Z " fill="#3E2C43" transform="translate(514,673)"/>
<path d="M0 0 C1 4 1 4 1 4 Z " fill="#463449" transform="translate(400,673)"/>
<path d="M0 0 C0.66 0.66 1.32 1.32 2 2 C1.01 2.495 1.01 2.495 0 3 C0 2.01 0 1.02 0 0 Z " fill="#412D44" transform="translate(512,658)"/>
<path d="M0 0 C4 1 4 1 4 1 Z " fill="#433046" transform="translate(625,525)"/>
<path d="M0 0 C0.99 0.495 0.99 0.495 2 1 C1.67 1.66 1.34 2.32 1 3 C0.67 2.01 0.34 1.02 0 0 Z " fill="#423046" transform="translate(442,485)"/>
<path d="" fill="#432F44" transform="translate(0,0)"/>
<path d="M0 0 C3 1 3 1 3 1 Z " fill="#422F44" transform="translate(416,635)"/>
<path d="M0 0 C3 1 3 1 3 1 Z " fill="#413045" transform="translate(609,627)"/>
<path d="M0 0 C3 1 3 1 3 1 Z " fill="#3E2C43" transform="translate(580,624)"/>
<path d="M0 0 C3 1 3 1 3 1 Z " fill="#413244" transform="translate(664,528)"/>
<path d="M0 0 C3 1 3 1 3 1 Z " fill="#412F42" transform="translate(552,528)"/>
<path d="M0 0 C3 1 3 1 3 1 Z " fill="#443147" transform="translate(641,525)"/>
<path d="M0 0 C0.66 0 1.32 0 2 0 C1.67 0.66 1.34 1.32 1 2 C0.67 1.34 0.34 0.68 0 0 Z " fill="#412E44" transform="translate(633,525)"/>
<path d="" fill="#412E45" transform="translate(0,0)"/>
<path d="" fill="#3F2D45" transform="translate(0,0)"/>
<path d="M0 0 C3 1 3 1 3 1 Z " fill="#524D4A" transform="translate(479,384)"/>
<path d="M0 0 C3 1 3 1 3 1 Z " fill="#6A7E4B" transform="translate(532,372)"/>
<path d="M0 0 C3 1 3 1 3 1 Z " fill="#779458" transform="translate(405,248)"/>
<path d="M0 0 C2 1 2 1 2 1 Z " fill="#413047" transform="translate(464,741)"/>
<path d="M0 0 C2 1 2 1 2 1 Z " fill="#453346" transform="translate(463,725)"/>
<path d="" fill="#443448" transform="translate(0,0)"/>
<path d="" fill="#3E2B43" transform="translate(0,0)"/>
<path d="" fill="#402C42" transform="translate(0,0)"/>
<path d="" fill="#402C44" transform="translate(0,0)"/>
<path d="" fill="#47364A" transform="translate(0,0)"/>
<path d="" fill="#453348" transform="translate(0,0)"/>
<path d="M0 0 C2 1 2 1 2 1 Z " fill="#423045" transform="translate(531,648)"/>
<path d="M0 0 C2 1 2 1 2 1 Z " fill="#422F45" transform="translate(606,635)"/>
<path d="M0 0 C2 1 2 1 2 1 Z " fill="#423146" transform="translate(414,627)"/>
<path d="M0 0 C2 1 2 1 2 1 Z " fill="#423145" transform="translate(385,627)"/>
<path d="M0 0 C2 1 2 1 2 1 Z " fill="#473449" transform="translate(373,623)"/>
<path d="M0 0 C2 1 2 1 2 1 Z " fill="#443246" transform="translate(370,622)"/>
<path d="M0 0 C2 1 2 1 2 1 Z " fill="#432D45" transform="translate(593,621)"/>
<path d="" fill="#403045" transform="translate(0,0)"/>
<path d="" fill="#412E46" transform="translate(0,0)"/>
<path d="" fill="#433248" transform="translate(0,0)"/>
<path d="M0 0 C2 1 2 1 2 1 Z " fill="#433147" transform="translate(336,586)"/>
<path d="M0 0 C2 1 2 1 2 1 Z " fill="#3E2C42" transform="translate(533,536)"/>
<path d="" fill="#422E44" transform="translate(0,0)"/>
<path d="M0 0 C2 1 2 1 2 1 Z " fill="#3E2C43" transform="translate(416,530)"/>
<path d="" fill="#412D46" transform="translate(0,0)"/>
<path d="M0 0 C2 1 2 1 2 1 Z " fill="#413142" transform="translate(357,528)"/>
<path d="M0 0 C2 1 2 1 2 1 Z " fill="#433146" transform="translate(487,526)"/>
<path d="" fill="#442F46" transform="translate(0,0)"/>
<path d="M0 0 C2 1 2 1 2 1 Z " fill="#422F46" transform="translate(537,525)"/>
<path d="M0 0 C2 1 2 1 2 1 Z " fill="#423346" transform="translate(674,524)"/>
<path d="M0 0 C2 1 2 1 2 1 Z " fill="#402D45" transform="translate(432,522)"/>
<path d="M0 0 C2 1 2 1 2 1 Z " fill="#423046" transform="translate(440,487)"/>
<path d="" fill="#3F2C44" transform="translate(0,0)"/>
<path d="" fill="#422D43" transform="translate(0,0)"/>
<path d="" fill="#453649" transform="translate(0,0)"/>
<path d="" fill="#403045" transform="translate(0,0)"/>
<path d="" fill="#433148" transform="translate(0,0)"/>
<path d="" fill="#423044" transform="translate(0,0)"/>
<path d="" fill="#51514A" transform="translate(0,0)"/>
<path d="M0 0 C2 1 2 1 2 1 Z " fill="#4A4249" transform="translate(662,384)"/>
<path d="M0 0 C2 1 2 1 2 1 Z " fill="#545149" transform="translate(594,384)"/>
<path d="M0 0 C2 1 2 1 2 1 Z " fill="#4D4447" transform="translate(542,384)"/>
<path d="M0 0 C2 1 2 1 2 1 Z " fill="#4F484C" transform="translate(419,384)"/>
<path d="M0 0 C2 1 2 1 2 1 Z " fill="#585D49" transform="translate(488,381)"/>
<path d="M0 0 C2 1 2 1 2 1 Z " fill="#6E844E" transform="translate(560,373)"/>
<path d="M0 0 C2 1 2 1 2 1 Z " fill="#6C854C" transform="translate(545,373)"/>
<path d="M0 0 C2 1 2 1 2 1 Z " fill="#708B52" transform="translate(434,365)"/>
<path d="" fill="#799A55" transform="translate(0,0)"/>
<path d="" fill="#789556" transform="translate(0,0)"/>
<path d="M0 0 C2 1 2 1 2 1 Z " fill="#779558" transform="translate(616,248)"/>
<path d="" fill="#414141" transform="translate(0,0)"/>
<path d="" fill="#413444" transform="translate(0,0)"/>
<path d="" fill="#433246" transform="translate(0,0)"/>
<path d="" fill="#423043" transform="translate(0,0)"/>
<path d="" fill="#402E44" transform="translate(0,0)"/>
<path d="" fill="#412E45" transform="translate(0,0)"/>
<path d="" fill="#413145" transform="translate(0,0)"/>
<path d="" fill="#3F2E44" transform="translate(0,0)"/>
<path d="" fill="#443146" transform="translate(0,0)"/>
<path d="" fill="#3F2E46" transform="translate(0,0)"/>
<path d="" fill="#3F3047" transform="translate(0,0)"/>
<path d="" fill="#423148" transform="translate(0,0)"/>
<path d="" fill="#453248" transform="translate(0,0)"/>
<path d="" fill="#453548" transform="translate(0,0)"/>
<path d="" fill="#443347" transform="translate(0,0)"/>
<path d="" fill="#43324B" transform="translate(0,0)"/>
<path d="" fill="#473048" transform="translate(0,0)"/>
<path d="" fill="#423147" transform="translate(0,0)"/>
<path d="" fill="#433347" transform="translate(0,0)"/>
<path d="" fill="#412D44" transform="translate(0,0)"/>
<path d="" fill="#44364A" transform="translate(0,0)"/>
<path d="" fill="#422E44" transform="translate(0,0)"/>
<path d="" fill="#422E46" transform="translate(0,0)"/>
<path d="" fill="#3C2F3F" transform="translate(0,0)"/>
<path d="" fill="#3C2C40" transform="translate(0,0)"/>
<path d="" fill="#463449" transform="translate(0,0)"/>
<path d="" fill="#453247" transform="translate(0,0)"/>
<path d="" fill="#442E44" transform="translate(0,0)"/>
<path d="" fill="#413043" transform="translate(0,0)"/>
<path d="" fill="#402D47" transform="translate(0,0)"/>
<path d="" fill="#402E43" transform="translate(0,0)"/>
<path d="" fill="#443449" transform="translate(0,0)"/>
<path d="" fill="#423043" transform="translate(0,0)"/>
<path d="" fill="#402F46" transform="translate(0,0)"/>
<path d="" fill="#4A394C" transform="translate(0,0)"/>
<path d="" fill="#432E44" transform="translate(0,0)"/>
<path d="" fill="#412F44" transform="translate(0,0)"/>
<path d="" fill="#432E46" transform="translate(0,0)"/>
<path d="" fill="#443045" transform="translate(0,0)"/>
<path d="" fill="#47364B" transform="translate(0,0)"/>
<path d="" fill="#402F43" transform="translate(0,0)"/>
<path d="" fill="#402F43" transform="translate(0,0)"/>
<path d="" fill="#47364A" transform="translate(0,0)"/>
<path d="" fill="#46354A" transform="translate(0,0)"/>
<path d="" fill="#473649" transform="translate(0,0)"/>
<path d="" fill="#403043" transform="translate(0,0)"/>
<path d="" fill="#403044" transform="translate(0,0)"/>
<path d="" fill="#47364C" transform="translate(0,0)"/>
<path d="" fill="#463448" transform="translate(0,0)"/>
<path d="" fill="#412C45" transform="translate(0,0)"/>
<path d="" fill="#3E2F40" transform="translate(0,0)"/>
<path d="" fill="#3B2D40" transform="translate(0,0)"/>
<path d="" fill="#402C45" transform="translate(0,0)"/>
<path d="" fill="#453546" transform="translate(0,0)"/>
<path d="" fill="#423046" transform="translate(0,0)"/>
<path d="" fill="#402E40" transform="translate(0,0)"/>
<path d="" fill="#422E46" transform="translate(0,0)"/>
<path d="" fill="#432F45" transform="translate(0,0)"/>
<path d="" fill="#3E2F42" transform="translate(0,0)"/>
<path d="" fill="#432C46" transform="translate(0,0)"/>
<path d="" fill="#412D46" transform="translate(0,0)"/>
<path d="" fill="#422F47" transform="translate(0,0)"/>
<path d="" fill="#432F46" transform="translate(0,0)"/>
<path d="" fill="#412E45" transform="translate(0,0)"/>
<path d="" fill="#423146" transform="translate(0,0)"/>
<path d="" fill="#3E2E43" transform="translate(0,0)"/>
<path d="" fill="#433246" transform="translate(0,0)"/>
<path d="" fill="#402C43" transform="translate(0,0)"/>
<path d="" fill="#403147" transform="translate(0,0)"/>
<path d="" fill="#443548" transform="translate(0,0)"/>
<path d="" fill="#412F41" transform="translate(0,0)"/>
<path d="" fill="#432D46" transform="translate(0,0)"/>
<path d="" fill="#422F44" transform="translate(0,0)"/>
<path d="" fill="#3E2D42" transform="translate(0,0)"/>
<path d="" fill="#433348" transform="translate(0,0)"/>
<path d="" fill="#432E44" transform="translate(0,0)"/>
<path d="" fill="#433147" transform="translate(0,0)"/>
<path d="" fill="#413345" transform="translate(0,0)"/>
<path d="" fill="#443345" transform="translate(0,0)"/>
<path d="" fill="#403046" transform="translate(0,0)"/>
<path d="" fill="#412D44" transform="translate(0,0)"/>
<path d="" fill="#49364C" transform="translate(0,0)"/>
<path d="" fill="#402F45" transform="translate(0,0)"/>
<path d="" fill="#413047" transform="translate(0,0)"/>
<path d="" fill="#463447" transform="translate(0,0)"/>
<path d="" fill="#3F2E44" transform="translate(0,0)"/>
<path d="" fill="#432F45" transform="translate(0,0)"/>
<path d="" fill="#403045" transform="translate(0,0)"/>
<path d="" fill="#433248" transform="translate(0,0)"/>
<path d="" fill="#402E45" transform="translate(0,0)"/>
<path d="" fill="#443349" transform="translate(0,0)"/>
<path d="" fill="#3E2C42" transform="translate(0,0)"/>
<path d="" fill="#433248" transform="translate(0,0)"/>
<path d="" fill="#403040" transform="translate(0,0)"/>
<path d="" fill="#422E48" transform="translate(0,0)"/>
<path d="" fill="#413242" transform="translate(0,0)"/>
<path d="" fill="#443449" transform="translate(0,0)"/>
<path d="" fill="#453247" transform="translate(0,0)"/>
<path d="" fill="#423446" transform="translate(0,0)"/>
<path d="" fill="#422D46" transform="translate(0,0)"/>
<path d="" fill="#433348" transform="translate(0,0)"/>
<path d="" fill="#3E3046" transform="translate(0,0)"/>
<path d="" fill="#412F45" transform="translate(0,0)"/>
<path d="" fill="#3F2F43" transform="translate(0,0)"/>
<path d="" fill="#422F46" transform="translate(0,0)"/>
<path d="" fill="#412F45" transform="translate(0,0)"/>
<path d="" fill="#402E44" transform="translate(0,0)"/>
<path d="" fill="#3E3044" transform="translate(0,0)"/>
<path d="" fill="#402D45" transform="translate(0,0)"/>
<path d="" fill="#422F45" transform="translate(0,0)"/>
<path d="" fill="#402E42" transform="translate(0,0)"/>
<path d="" fill="#423044" transform="translate(0,0)"/>
<path d="" fill="#413146" transform="translate(0,0)"/>
<path d="" fill="#453349" transform="translate(0,0)"/>
<path d="" fill="#443349" transform="translate(0,0)"/>
<path d="" fill="#412E45" transform="translate(0,0)"/>
<path d="" fill="#412D45" transform="translate(0,0)"/>
<path d="" fill="#422C45" transform="translate(0,0)"/>
<path d="" fill="#422F46" transform="translate(0,0)"/>
<path d="" fill="#433248" transform="translate(0,0)"/>
<path d="" fill="#402E45" transform="translate(0,0)"/>
<path d="" fill="#3F2D42" transform="translate(0,0)"/>
<path d="" fill="#452E47" transform="translate(0,0)"/>
<path d="" fill="#412E46" transform="translate(0,0)"/>
<path d="" fill="#402F42" transform="translate(0,0)"/>
<path d="" fill="#433145" transform="translate(0,0)"/>
<path d="" fill="#423044" transform="translate(0,0)"/>
<path d="" fill="#433046" transform="translate(0,0)"/>
<path d="" fill="#3F2F43" transform="translate(0,0)"/>
<path d="" fill="#412F47" transform="translate(0,0)"/>
<path d="" fill="#423046" transform="translate(0,0)"/>
<path d="" fill="#443147" transform="translate(0,0)"/>
<path d="" fill="#402D44" transform="translate(0,0)"/>
<path d="" fill="#3F2F44" transform="translate(0,0)"/>
<path d="" fill="#45364C" transform="translate(0,0)"/>
<path d="" fill="#423045" transform="translate(0,0)"/>
<path d="" fill="#412F48" transform="translate(0,0)"/>
<path d="" fill="#422E45" transform="translate(0,0)"/>
<path d="" fill="#47364C" transform="translate(0,0)"/>
<path d="" fill="#423048" transform="translate(0,0)"/>
<path d="" fill="#412F46" transform="translate(0,0)"/>
<path d="" fill="#432F47" transform="translate(0,0)"/>
<path d="" fill="#3E2D43" transform="translate(0,0)"/>
<path d="" fill="#423046" transform="translate(0,0)"/>
<path d="" fill="#422E47" transform="translate(0,0)"/>
<path d="" fill="#433049" transform="translate(0,0)"/>
<path d="" fill="#423146" transform="translate(0,0)"/>
<path d="" fill="#433147" transform="translate(0,0)"/>
<path d="" fill="#453247" transform="translate(0,0)"/>
<path d="" fill="#413145" transform="translate(0,0)"/>
<path d="" fill="#453048" transform="translate(0,0)"/>
<path d="" fill="#432E46" transform="translate(0,0)"/>
<path d="" fill="#422F47" transform="translate(0,0)"/>
<path d="" fill="#402F44" transform="translate(0,0)"/>
<path d="" fill="#423047" transform="translate(0,0)"/>
<path d="" fill="#463149" transform="translate(0,0)"/>
<path d="" fill="#433148" transform="translate(0,0)"/>
<path d="" fill="#3F3140" transform="translate(0,0)"/>
<path d="" fill="#3D2E41" transform="translate(0,0)"/>
<path d="" fill="#413247" transform="translate(0,0)"/>
<path d="" fill="#423047" transform="translate(0,0)"/>
<path d="" fill="#412E46" transform="translate(0,0)"/>
<path d="" fill="#402F45" transform="translate(0,0)"/>
<path d="" fill="#423048" transform="translate(0,0)"/>
<path d="" fill="#453349" transform="translate(0,0)"/>
<path d="" fill="#46354A" transform="translate(0,0)"/>
<path d="" fill="#422D4A" transform="translate(0,0)"/>
<path d="" fill="#423047" transform="translate(0,0)"/>
<path d="" fill="#443448" transform="translate(0,0)"/>
<path d="" fill="#422E47" transform="translate(0,0)"/>
<path d="" fill="#433248" transform="translate(0,0)"/>
<path d="" fill="#433147" transform="translate(0,0)"/>
<path d="" fill="#47344A" transform="translate(0,0)"/>
<path d="" fill="#433047" transform="translate(0,0)"/>
<path d="" fill="#433048" transform="translate(0,0)"/>
<path d="" fill="#423346" transform="translate(0,0)"/>
<path d="" fill="#443449" transform="translate(0,0)"/>
<path d="" fill="#423144" transform="translate(0,0)"/>
<path d="" fill="#412E46" transform="translate(0,0)"/>
<path d="" fill="#423046" transform="translate(0,0)"/>
<path d="" fill="#443046" transform="translate(0,0)"/>
<path d="" fill="#473448" transform="translate(0,0)"/>
<path d="" fill="#453448" transform="translate(0,0)"/>
<path d="" fill="#433149" transform="translate(0,0)"/>
<path d="" fill="#443548" transform="translate(0,0)"/>
<path d="" fill="#443045" transform="translate(0,0)"/>
<path d="" fill="#412E45" transform="translate(0,0)"/>
<path d="" fill="#423348" transform="translate(0,0)"/>
<path d="" fill="#423044" transform="translate(0,0)"/>
<path d="" fill="#433348" transform="translate(0,0)"/>
<path d="" fill="#46354A" transform="translate(0,0)"/>
<path d="" fill="#3D2E41" transform="translate(0,0)"/>
<path d="" fill="#413046" transform="translate(0,0)"/>
<path d="" fill="#46364A" transform="translate(0,0)"/>
<path d="" fill="#403046" transform="translate(0,0)"/>
<path d="" fill="#402F46" transform="translate(0,0)"/>
<path d="" fill="#402F46" transform="translate(0,0)"/>
<path d="" fill="#413046" transform="translate(0,0)"/>
<path d="" fill="#46374B" transform="translate(0,0)"/>
<path d="" fill="#3F2F45" transform="translate(0,0)"/>
<path d="" fill="#413044" transform="translate(0,0)"/>
<path d="" fill="#412F46" transform="translate(0,0)"/>
<path d="" fill="#413146" transform="translate(0,0)"/>
<path d="" fill="#412E45" transform="translate(0,0)"/>
<path d="" fill="#413045" transform="translate(0,0)"/>
<path d="" fill="#43364A" transform="translate(0,0)"/>
<path d="" fill="#453448" transform="translate(0,0)"/>
<path d="" fill="#443748" transform="translate(0,0)"/>
<path d="" fill="#423145" transform="translate(0,0)"/>
<path d="" fill="#463649" transform="translate(0,0)"/>
<path d="" fill="#402E42" transform="translate(0,0)"/>
<path d="" fill="#403444" transform="translate(0,0)"/>
<path d="" fill="#413143" transform="translate(0,0)"/>
<path d="" fill="#48384B" transform="translate(0,0)"/>
<path d="" fill="#483B4B" transform="translate(0,0)"/>
<path d="" fill="#45384A" transform="translate(0,0)"/>
<path d="" fill="#443346" transform="translate(0,0)"/>
<path d="" fill="#443145" transform="translate(0,0)"/>
<path d="" fill="#443245" transform="translate(0,0)"/>
<path d="" fill="#443246" transform="translate(0,0)"/>
<path d="" fill="#413143" transform="translate(0,0)"/>
<path d="" fill="#413142" transform="translate(0,0)"/>
<path d="" fill="#463947" transform="translate(0,0)"/>
<path d="" fill="#433544" transform="translate(0,0)"/>
<path d="" fill="#433244" transform="translate(0,0)"/>
<path d="" fill="#483B48" transform="translate(0,0)"/>
<path d="" fill="#443647" transform="translate(0,0)"/>
<path d="" fill="#453846" transform="translate(0,0)"/>
<path d="" fill="#4A3D4D" transform="translate(0,0)"/>
<path d="" fill="#4A404B" transform="translate(0,0)"/>
<path d="" fill="#4B3E4C" transform="translate(0,0)"/>
<path d="" fill="#4B434E" transform="translate(0,0)"/>
<path d="" fill="#4B3D4C" transform="translate(0,0)"/>
<path d="" fill="#4C4247" transform="translate(0,0)"/>
<path d="" fill="#4C414B" transform="translate(0,0)"/>
<path d="" fill="#4F4B49" transform="translate(0,0)"/>
<path d="" fill="#525348" transform="translate(0,0)"/>
<path d="" fill="#56534C" transform="translate(0,0)"/>
<path d="" fill="#504D4B" transform="translate(0,0)"/>
<path d="" fill="#4D444C" transform="translate(0,0)"/>
<path d="" fill="#504D4B" transform="translate(0,0)"/>
<path d="" fill="#4F4548" transform="translate(0,0)"/>
<path d="" fill="#514D4B" transform="translate(0,0)"/>
<path d="" fill="#52534C" transform="translate(0,0)"/>
<path d="" fill="#51464D" transform="translate(0,0)"/>
<path d="" fill="#50474B" transform="translate(0,0)"/>
<path d="" fill="#4E4849" transform="translate(0,0)"/>
<path d="" fill="#51464F" transform="translate(0,0)"/>
<path d="" fill="#4F4B4C" transform="translate(0,0)"/>
<path d="" fill="#55544C" transform="translate(0,0)"/>
<path d="" fill="#5E654B" transform="translate(0,0)"/>
<path d="" fill="#61684C" transform="translate(0,0)"/>
<path d="" fill="#62694D" transform="translate(0,0)"/>
<path d="" fill="#5F6A4D" transform="translate(0,0)"/>
<path d="" fill="#626B4F" transform="translate(0,0)"/>
<path d="" fill="#5B5C50" transform="translate(0,0)"/>
<path d="" fill="#65704B" transform="translate(0,0)"/>
<path d="" fill="#6C844C" transform="translate(0,0)"/>
<path d="" fill="#6B844A" transform="translate(0,0)"/>
<path d="" fill="#6C854D" transform="translate(0,0)"/>
<path d="" fill="#6A844C" transform="translate(0,0)"/>
<path d="" fill="#6C854D" transform="translate(0,0)"/>
<path d="" fill="#6D854D" transform="translate(0,0)"/>
<path d="" fill="#6D854D" transform="translate(0,0)"/>
<path d="" fill="#6E894E" transform="translate(0,0)"/>
<path d="" fill="#6F8650" transform="translate(0,0)"/>
<path d="" fill="#708851" transform="translate(0,0)"/>
<path d="" fill="#6B814B" transform="translate(0,0)"/>
<path d="" fill="#6F8750" transform="translate(0,0)"/>
<path d="" fill="#718953" transform="translate(0,0)"/>
<path d="" fill="#6F8B52" transform="translate(0,0)"/>
<path d="" fill="#6E8650" transform="translate(0,0)"/>
<path d="" fill="#738C50" transform="translate(0,0)"/>
<path d="" fill="#738C51" transform="translate(0,0)"/>
<path d="" fill="#718D53" transform="translate(0,0)"/>
<path d="" fill="#708D53" transform="translate(0,0)"/>
<path d="" fill="#6F8D53" transform="translate(0,0)"/>
<path d="" fill="#718D51" transform="translate(0,0)"/>
<path d="" fill="#779351" transform="translate(0,0)"/>
<path d="" fill="#759352" transform="translate(0,0)"/>
<path d="" fill="#708D53" transform="translate(0,0)"/>
<path d="" fill="#769355" transform="translate(0,0)"/>
<path d="" fill="#769154" transform="translate(0,0)"/>
<path d="" fill="#7A9B53" transform="translate(0,0)"/>
<path d="" fill="#799B53" transform="translate(0,0)"/>
<path d="" fill="#779254" transform="translate(0,0)"/>
<path d="" fill="#789258" transform="translate(0,0)"/>
<path d="" fill="#7C9A56" transform="translate(0,0)"/>
<path d="" fill="#789456" transform="translate(0,0)"/>
<path d="" fill="#769455" transform="translate(0,0)"/>
<path d="" fill="#779554" transform="translate(0,0)"/>
<path d="" fill="#799657" transform="translate(0,0)"/>
<path d="" fill="#779656" transform="translate(0,0)"/>
<path d="" fill="#789856" transform="translate(0,0)"/>
<path d="" fill="#769757" transform="translate(0,0)"/>
<path d="" fill="#7B9C58" transform="translate(0,0)"/>
<path d="" fill="#759655" transform="translate(0,0)"/>
<path d="" fill="#7C9E57" transform="translate(0,0)"/>
<path d="" fill="#7B9B57" transform="translate(0,0)"/>
<path d="" fill="#7A9858" transform="translate(0,0)"/>
<path d="" fill="#789756" transform="translate(0,0)"/>
<path d="" fill="#7C9D55" transform="translate(0,0)"/>
<path d="" fill="#7D9E5E" transform="translate(0,0)"/>
<path d="" fill="#789858" transform="translate(0,0)"/>
<path d="" fill="#759553" transform="translate(0,0)"/>
<path d="" fill="#799859" transform="translate(0,0)"/>
<path d="" fill="#769755" transform="translate(0,0)"/>
<path d="" fill="#7B9756" transform="translate(0,0)"/>
<path d="" fill="#769555" transform="translate(0,0)"/>
<path d="" fill="#799656" transform="translate(0,0)"/>
<path d="" fill="#779756" transform="translate(0,0)"/>
<path d="" fill="#779757" transform="translate(0,0)"/>
<path d="" fill="#779356" transform="translate(0,0)"/>
<path d="" fill="#749057" transform="translate(0,0)"/>
</svg>
